<?xml version="1.0" standalone="no"?>
<!DOCTYPE svg PUBLIC "-//W3C//DTD SVG 1.1//EN" "http://www.w3.org/Graphics/SVG/1.1/DTD/svg11.dtd" >
<svg xmlns="http://www.w3.org/2000/svg">
<metadata></metadata>
<defs>
<font id="courier_primebold" horiz-adv-x="1228" >
<font-face units-per-em="2048" ascent="1638" descent="-410" />
<missing-glyph horiz-adv-x="500" />
<glyph />
<glyph />
<glyph unicode="&#xd;" />
<glyph unicode=" " />
<glyph unicode="!" d="M425 167q0 39 15 74t40.5 60.5t60 40.5t73.5 15t73.5 -15t60 -40.5t40.5 -60.5t15 -74t-15 -73.5t-40.5 -60t-60 -40.5t-73.5 -15t-73.5 15t-60 40.5t-40.5 60t-15 73.5zM448 1159q-6 50 41 50h250q47 0 41 -50l-73 -577q-5 -38 -29.5 -58t-63.5 -20t-63.5 20t-29.5 58z " />
<glyph unicode="&#x22;" d="M218 1159q-4 26 7 38t34 12h250q23 0 34 -12t7 -38l-73 -480q-5 -31 -24.5 -49.5t-68.5 -18.5t-68.5 18.5t-24.5 49.5zM678 1159q-4 26 7 38t34 12h250q23 0 34 -12t7 -38l-73 -480q-5 -31 -24.5 -49.5t-68.5 -18.5t-68.5 18.5t-24.5 49.5z" />
<glyph unicode="#" d="M40 369q0 36 3.5 58t11 34t19.5 16.5t29 4.5h192l73 233h-165q-17 0 -29 4t-19.5 16t-11 34t-3.5 58t3.5 58t11 34t19.5 16.5t29 4.5h235l74 236q5 17 26.5 25t47.5 8q21 0 43 -4.5t38.5 -13.5t25 -21.5t3.5 -27.5l-63 -202h179l74 236q5 17 26.5 25t47.5 8q21 0 43 -4.5 t38.5 -13.5t25 -21.5t3.5 -27.5l-63 -202h118q17 0 29 -4.5t19.5 -16.5t11 -34t3.5 -58t-3.5 -58t-11 -34t-19.5 -16t-29 -4h-189l-73 -233h162q17 0 29 -4.5t19.5 -16.5t11 -34t3.5 -58t-3.5 -58t-11 -34t-19.5 -16t-29 -4h-232l-77 -246q-5 -17 -26.5 -25t-47.5 -8 q-21 0 -43 4.5t-38.5 13.5t-25 21.5t-3.5 27.5l66 212h-179l-77 -246q-5 -17 -26.5 -25t-47.5 -8q-21 0 -43 4.5t-38.5 13.5t-25 21.5t-3.5 27.5l66 212h-121q-17 0 -29 4t-19.5 16t-11 34t-3.5 58zM489 482h180l73 233h-180z" />
<glyph unicode="$" d="M164 800q0 66 26.5 118t73.5 89t111.5 57t139.5 22v163q0 34 18.5 48.5t74.5 14.5t74.5 -14.5t18.5 -48.5v-191q49 -18 93 -45v10q0 34 24 48.5t88 14.5t91 -14.5t27 -48.5v-211q0 -34 -21.5 -48.5t-70.5 -14.5q-53 0 -73 21q-35 37 -74 60t-84 37v-146q51 -6 102 -16.5 t97 -29.5q36 -15 67.5 -36.5t54 -51.5t35.5 -69.5t13 -90.5q0 -68 -24.5 -123.5t-71.5 -95.5t-115.5 -63.5t-157.5 -26.5v-180q0 -34 -18.5 -48.5t-74.5 -14.5t-74.5 14.5t-18.5 48.5v204q-28 9 -53 21t-48 26v-8q0 -34 -29 -48.5t-93 -14.5t-91 14.5t-27 48.5v223 q0 34 23.5 48.5t72.5 14.5q33 0 52.5 -7t30.5 -21q32 -40 73 -65t89 -39v161q-57 9 -111.5 23.5t-101.5 40.5q-60 33 -99 90t-39 150zM422 809q0 -16 8 -27.5t21 -19t29.5 -12.5t34.5 -8v142q-45 -6 -69 -26t-24 -49zM701 320q57 6 84 26.5t27 54.5q0 26 -27 45t-84 27v-3 v-150z" />
<glyph unicode="%" d="M50 935q0 57 21.5 106.5t59 87t87 59t106.5 21.5t106.5 -21.5t87 -59t59 -87t21.5 -106.5t-21.5 -106.5t-59 -87t-87 -59t-106.5 -21.5t-106.5 21.5t-87 59t-59 87t-21.5 106.5zM86 202q-3 24 22 47l877 834q12 12 23.5 17t24 2t28.5 -14.5t37 -33.5t31.5 -38t12.5 -29 t-4 -24t-18 -23l-877 -834q-12 -12 -23.5 -17t-24.5 -2.5t-28.5 14t-36.5 33.5q-41 44 -44 68zM237 935q0 -36 25.5 -61.5t61.5 -25.5t61.5 25.5t25.5 61.5t-25.5 61.5t-61.5 25.5t-61.5 -25.5t-25.5 -61.5zM630 252q0 57 21.5 106.5t59 87t87 59t106.5 21.5t106.5 -21.5 t87 -59t59 -87t21.5 -106.5t-21.5 -106.5t-59 -87t-87 -59t-106.5 -21.5t-106.5 21.5t-87 59t-59 87t-21.5 106.5zM817 252q0 -36 25.5 -61.5t61.5 -25.5t61.5 25.5t25.5 61.5t-25.5 61.5t-61.5 25.5t-61.5 -25.5t-25.5 -61.5z" />
<glyph unicode="&#x26;" d="M107 320q0 97 45.5 170t134.5 132q-38 54 -61.5 114.5t-23.5 129.5q0 74 26 137t75 108.5t120 71.5t160 26q77 0 158.5 -23.5t170.5 -72.5q22 -12 32.5 -26.5t10.5 -35.5v-197q0 -34 -29 -48.5t-93 -14.5q-32 0 -53 3.5t-33 11t-17 19.5t-5 29v102q-33 17 -69 26.5 t-74 9.5q-56 0 -91 -35.5t-35 -95.5q0 -51 30 -98.5t78 -96.5l181 -189q12 29 24 60.5t23 65.5q6 19 17.5 30.5t34.5 11.5h220q17 0 29 -4t19.5 -15t11 -31t3.5 -52t-3.5 -52t-11 -31.5t-19.5 -15.5t-29 -4h-91q-27 -77 -57 -141l91 -94h77q17 0 29 -4t19.5 -15.5t11 -31.5 t3.5 -52t-3.5 -52t-11 -31t-19.5 -15t-29 -4h-171q-40 0 -72 33l-65 67q-66 -63 -145.5 -92.5t-174.5 -29.5q-80 0 -144.5 25t-110 70.5t-70 108.5t-24.5 138zM355 330q0 -57 32.5 -91t88.5 -34q41 0 75.5 15.5t65.5 45.5l-195 203q-33 -30 -50 -63.5t-17 -75.5z" />
<glyph unicode="'" d="M448 1159q-4 26 7 38t34 12h250q23 0 34 -12t7 -38l-73 -480q-5 -31 -24.5 -49.5t-68.5 -18.5t-68.5 18.5t-24.5 49.5z" />
<glyph unicode="(" d="M257 459q0 162 44.5 296t117 240.5t165 186t187.5 133.5q30 17 62 -2.5t58 -57.5q13 -20 22 -41t12 -39t-0.5 -32.5t-15.5 -21.5q-97 -61 -172 -130.5t-126.5 -151t-78.5 -176t-27 -204.5t27 -204.5t78.5 -176t126.5 -151t172 -130.5q12 -8 15.5 -22t0.5 -32t-12 -39 t-22 -41q-26 -38 -58 -57.5t-62 -2.5q-95 54 -187.5 133.5t-165 186t-117 240.5t-44.5 296z" />
<glyph unicode=")" d="M302 -257q-3 18 1 32t16 22q97 61 172 130.5t126.5 151t78.5 176t27 204.5t-27 204.5t-78.5 176t-126.5 151t-172 130.5q-12 7 -16 21.5t-1 32.5t12 39t23 41q26 38 58 57.5t62 2.5q95 -54 187.5 -133.5t165 -186t117 -240.5t44.5 -296t-44.5 -296t-117 -240.5t-165 -186 t-187.5 -133.5q-30 -17 -62 2.5t-58 57.5q-14 20 -23 41t-12 39z" />
<glyph unicode="*" d="M189.5 846q-3.5 27 7.5 60t29.5 53t41.5 28t48.5 4.5t49.5 -18.5l179 -108l-47 204q-6 28 -2 53t19 44.5t39.5 31t59.5 11.5q34 0 59 -11.5t40 -31t19 -44.5t-2 -53l-47 -204l179 108q24 15 49.5 18.5t48.5 -4.5t41.5 -28t29.5 -53q10 -33 7 -60t-16.5 -46.5t-36.5 -31.5 t-51 -15l-208 -19l158 -137q21 -19 32.5 -42t11 -47t-13.5 -48t-41 -45q-28 -20 -54.5 -25.5t-50 1.5t-42 25t-29.5 44l-83 193l-83 -193q-11 -26 -29.5 -44t-42 -25t-50 -1.5t-54.5 25.5q-28 21 -41 45t-13.5 48t11 47t32.5 42l158 137l-208 19q-29 3 -51.5 15t-36 31.5 t-17 46.5z" />
<glyph unicode="+" d="M170 582q0 36 3.5 58t11 34t19.5 16.5t29 4.5h268v268q0 17 4.5 29t16.5 19.5t34 11t58 3.5t58 -3.5t34 -11t16 -19.5t4 -29v-268h269q17 0 29 -4.5t19.5 -16.5t11 -34t3.5 -58t-3.5 -58t-11 -34t-19.5 -16t-29 -4h-269v-269q0 -17 -4 -29t-16 -19.5t-34 -11t-58 -3.5 t-58 3.5t-34 11t-16.5 19.5t-4.5 29v269h-268q-17 0 -29 4t-19.5 16t-11 34t-3.5 58z" />
<glyph unicode="," d="M354 -228l94 542q8 40 52 40h259q25 0 33 -18.5t-5 -44.5l-267 -544q-11 -21 -31 -31t-55 -10q-42 0 -63.5 17t-16.5 49z" />
<glyph unicode="-" d="M170 582q0 36 3.5 58t11 34t19.5 16.5t29 4.5h762q17 0 29 -4.5t19.5 -16.5t11 -34t3.5 -58t-3.5 -58t-11 -34t-19.5 -16t-29 -4h-762q-17 0 -29 4t-19.5 16t-11 34t-3.5 58z" />
<glyph unicode="." d="M406 186q0 43 16.5 81t44.5 66t66 44.5t81 16.5t81 -16.5t66 -44.5t44.5 -66t16.5 -81t-16.5 -81t-44.5 -66t-66 -44.5t-81 -16.5t-81 16.5t-66 44.5t-44.5 66t-16.5 81z" />
<glyph unicode="/" d="M170 -230.5q-11 21.5 1 47.5l662 1488q8 17 29.5 25.5t48.5 8.5q29 0 59.5 -8.5t54 -24t34 -37t-1.5 -48.5l-662 -1488q-8 -17 -29 -25t-47 -8q-29 0 -60 8.5t-54.5 24t-34.5 37z" />
<glyph unicode="0" d="M133 593q0 135 33 248t95 195t151 127.5t202 45.5q112 0 201.5 -45.5t151.5 -127.5t95 -195t33 -248t-33 -248t-95 -194.5t-151.5 -127t-201.5 -45.5q-113 0 -202 45.5t-151 127t-95 194.5t-33 248zM401 593q0 -195 55 -291.5t158 -96.5t158 96.5t55 291.5t-55 292 t-158 97t-158 -97t-55 -292z" />
<glyph unicode="1" d="M210 102q0 32 3.5 52t11 31.5t19.5 15.5t29 4h246v728l-186 -67q-16 -6 -28.5 -6t-24 7.5t-21.5 25t-21 47.5q-22 59 -14.5 83.5t39.5 35.5l400 146q46 17 76 -3.5t30 -73.5v-923h236q17 0 29 -4t19.5 -15.5t11 -31.5t3.5 -52t-3.5 -52t-11 -31t-19.5 -15t-29 -4h-732 q-17 0 -29 4t-19.5 15t-11 31t-3.5 52z" />
<glyph unicode="2" d="M158 103q0 41 5 60.5t19 32.5l429 413q40 39 68 70t45.5 57.5t25 51t7.5 51.5q0 67 -39 110t-117 43q-47 0 -91 -11.5t-82 -30.5v-140q0 -17 -5 -29t-17 -19.5t-33 -11t-53 -3.5q-64 0 -93 14.5t-29 48.5v237q0 41 43 64q91 50 182.5 74t176.5 24q100 0 177 -26.5 t129 -74.5t78.5 -115t26.5 -149q0 -52 -11.5 -98.5t-35.5 -90.5t-59.5 -87.5t-83.5 -89.5l-273 -263h282v92q0 17 5 29t17 19.5t33 11t53 3.5q64 0 93 -14.5t29 -48.5v-242q0 -35 -15 -50t-50 -15h-774q-17 0 -29 4t-19.5 15.5t-11 31.5t-3.5 52z" />
<glyph unicode="3" d="M184.5 101.5q-7.5 31.5 15.5 89.5t48 74t48 5q64 -30 133 -47.5t135 -17.5q108 0 161 40t53 113q0 72 -43 108.5t-127 36.5h-103q-17 0 -29 5t-19.5 17t-11 32.5t-3.5 52.5t3.5 53t11 33t19.5 17t29 5h76q89 0 132.5 32.5t43.5 103.5q0 138 -166 138q-45 0 -82.5 -6.5 t-70.5 -16.5v-79q0 -17 -5 -29t-17 -19.5t-33 -11t-53 -3.5q-64 0 -93 14.5t-29 48.5v187q0 45 49 64q78 32 163 50t170 18q201 0 311 -87t110 -253q0 -91 -37.5 -150.5t-103.5 -94.5q81 -37 128.5 -103t47.5 -165q0 -95 -33.5 -166t-96 -118t-151.5 -70.5t-201 -23.5 q-93 0 -180.5 18.5t-162.5 58.5q-29 15 -36.5 46.5z" />
<glyph unicode="4" d="M120 472q0 36 5 57t14 32l470 579q26 33 61 51t88 18q31 0 51 -6.5t32 -18.5t17 -28.5t5 -36.5v-544h172q17 0 29 -4t19.5 -15.5t11 -31.5t3.5 -52t-3.5 -52t-11 -31t-19.5 -15t-29 -4h-172v-165h142q17 0 29 -4t19.5 -15.5t11 -31.5t3.5 -52t-3.5 -52t-11 -31t-19.5 -15 t-29 -4h-562q-17 0 -29 4t-19.5 15t-11 31t-3.5 52t3.5 52t11 31.5t19.5 15.5t29 4h170v165h-430q-17 0 -29 4t-19.5 15t-11 31t-3.5 52zM403 575h219l16 292z" />
<glyph unicode="5" d="M177.5 114q-7.5 31 15.5 89t48 74t48 5q68 -34 141 -55.5t144 -21.5q45 0 82.5 12t64.5 35t42 56.5t15 77.5q0 81 -45 127t-129 46q-51 0 -100 -10t-92 -26q-20 -8 -42 -12t-40 -4q-65 0 -91 15t-24 50l33 550q2 35 16 50t49 15h608q17 0 29 -5t19.5 -17t11 -33t3.5 -53 t-3.5 -52.5t-11 -32.5t-19.5 -17t-29 -5h-442l-14 -223q47 18 94.5 27.5t97.5 9.5q95 0 168 -29.5t122 -83t74 -127t25 -160.5q0 -103 -33.5 -179.5t-95 -127.5t-148.5 -76t-195 -25q-96 0 -189 23.5t-171 65.5q-29 16 -36.5 47z" />
<glyph unicode="6" d="M160 512q0 158 52.5 284t156 215t256 139.5t352.5 58.5q26 1 40.5 -24.5t19.5 -82.5q7 -69 -4.5 -101t-34.5 -34q-137 -7 -238.5 -29.5t-172 -63.5t-111.5 -103t-56 -147q55 61 121.5 89t153.5 28q84 0 154.5 -27.5t121 -77t79 -118.5t28.5 -152q0 -85 -33.5 -156.5 t-92.5 -123t-141.5 -80t-179.5 -28.5q-129 0 -225 52t-160 146q-42 61 -64 147.5t-22 188.5zM440 371q0 -34 12.5 -65t37 -54t60 -37t80.5 -14q43 0 78 11.5t60 32.5t38.5 51.5t13.5 68.5q0 78 -48.5 121t-133.5 43q-44 0 -80.5 -11.5t-62.5 -32.5t-40.5 -50t-14.5 -64z" />
<glyph unicode="7" d="M188 760v362q0 35 15 50t50 15h764q17 0 29 -4t19.5 -15.5t11 -31.5t3.5 -52q0 -50 -9 -72l-417 -988q-7 -17 -22 -27t-35 -14.5t-42.5 -4t-44.5 5.5q-24 6 -46 16.5t-36 25t-19.5 32.5t3.5 39l372 875h-366v-212q0 -17 -5 -29t-17 -19.5t-33 -11t-53 -3.5 q-64 0 -93 14.5t-29 48.5z" />
<glyph unicode="8" d="M171 335q0 56 14.5 101t41 80t63.5 60.5t83 42.5q-75 33 -119 94.5t-44 157.5q0 69 27.5 130.5t80 107.5t127 73t169.5 27q94 0 169 -27t127.5 -73t80 -107.5t27.5 -130.5q0 -96 -44.5 -157.5t-118.5 -94.5q45 -17 82.5 -42.5t64 -60.5t41 -80t14.5 -101 q0 -84 -32 -150.5t-90.5 -112t-140 -70t-180.5 -24.5t-180.5 24.5t-140 70t-90.5 112t-32 150.5zM436 356q0 -72 45 -116t133 -44t133 44t45 116t-45 117t-133 45t-133 -45t-45 -117zM459 851q0 -63 40.5 -101t114.5 -38t114.5 38t40.5 101t-41.5 101.5t-113.5 38.5 t-113.5 -38.5t-41.5 -101.5z" />
<glyph unicode="9" d="M150 821q0 85 33.5 156.5t92.5 123t141 80t180 28.5q129 0 225 -52t160 -146q42 -61 64 -147.5t22 -188.5q0 -158 -43.5 -284t-135.5 -215t-235 -139.5t-343 -58.5q-26 -1 -40.5 24.5t-19.5 82.5q-7 69 4.5 101t34.5 34q136 7 230 29.5t154.5 63.5t91.5 103t42 147 q-55 -61 -121.5 -89t-153.5 -28q-84 0 -154.5 27.5t-121 77t-79 118.5t-28.5 152zM408 822q0 -78 48.5 -121t133.5 -43q44 0 80.5 11.5t62.5 32.5t40.5 50t14.5 64q0 34 -12.5 65t-37 54t-60 37t-80.5 14q-43 0 -78 -11.5t-60 -32.5t-38.5 -51.5t-13.5 -68.5z" />
<glyph unicode=":" d="M419 173q0 40 15.5 76t41.5 62t61.5 41.5t76.5 15.5q40 0 76 -15.5t62 -41.5t41.5 -62t15.5 -76q0 -41 -15.5 -76.5t-41.5 -61.5t-62 -41.5t-76 -15.5q-41 0 -76.5 15.5t-61.5 41.5t-41.5 61.5t-15.5 76.5zM419 751q0 40 15.5 76t41.5 62t61.5 41.5t76.5 15.5 q40 0 76 -15.5t62 -41.5t41.5 -62t15.5 -76q0 -41 -15.5 -76.5t-41.5 -61.5t-62 -41.5t-76 -15.5q-41 0 -76.5 15.5t-61.5 41.5t-41.5 61.5t-15.5 76.5z" />
<glyph unicode=";" d="M354 -228l94 542q8 40 52 40h259q25 0 33 -18.5t-5 -44.5l-267 -544q-11 -21 -31 -31t-55 -10q-42 0 -63.5 17t-16.5 49zM419 751q0 40 15.5 76t41.5 62t61.5 41.5t76.5 15.5q40 0 76 -15.5t62 -41.5t41.5 -62t15.5 -76q0 -41 -15.5 -76.5t-41.5 -61.5t-62 -41.5 t-76 -15.5q-41 0 -76.5 15.5t-61.5 41.5t-41.5 61.5t-15.5 76.5z" />
<glyph unicode="&#x3c;" d="M120 583q0 43 11 62.5t35 31.5l780 402q15 8 28.5 9.5t26.5 -5.5t26.5 -24.5t28.5 -47.5q30 -60 26 -90t-36 -46l-585 -292l585 -292q32 -16 36 -46t-26 -90q-15 -30 -28.5 -47.5t-26.5 -24.5t-26.5 -5.5t-28.5 9.5l-780 402q-24 12 -35 31.5t-11 62.5z" />
<glyph unicode="=" d="M170 353q0 36 3.5 58t11 34t19.5 16.5t29 4.5h762q17 0 29 -4.5t19.5 -16.5t11 -34t3.5 -58t-3.5 -58t-11 -34t-19.5 -16t-29 -4h-762q-17 0 -29 4t-19.5 16t-11 34t-3.5 58zM170 811q0 36 3.5 58t11 34t19.5 16.5t29 4.5h762q17 0 29 -4.5t19.5 -16.5t11 -34t3.5 -58 t-3.5 -58t-11 -34t-19.5 -16t-29 -4h-762q-17 0 -29 4t-19.5 16t-11 34t-3.5 58z" />
<glyph unicode="&#x3e;" d="M146 245q4 30 36 46l585 292l-585 292q-32 16 -36 46t26 90q15 30 28.5 47.5t26.5 24.5t26.5 5.5t28.5 -9.5l780 -402q24 -12 35 -31.5t11 -62.5t-11 -62.5t-35 -31.5l-780 -402q-15 -8 -28.5 -9.5t-26.5 5.5t-26.5 24.5t-28.5 47.5q-30 60 -26 90z" />
<glyph unicode="?" d="M208 860v200q0 41 41 61q83 39 169.5 63.5t171.5 24.5q100 0 177 -23t129 -66.5t78.5 -105.5t26.5 -140q0 -69 -19.5 -120t-57.5 -89t-96 -65t-134 -47l-9 -86q-1 -12 -6 -21t-16.5 -15t-30.5 -9t-48 -3t-48 3t-30.5 9t-16.5 15t-6 21l-18 208q-2 20 4.5 34t25.5 17 l110 18q74 12 108 41.5t34 83.5q0 60 -39 91.5t-117 31.5q-41 0 -79.5 -8t-73.5 -22v-102q0 -17 -5 -29t-17 -19.5t-33 -11t-53 -3.5q-64 0 -93 14.5t-29 48.5zM413 149q0 36 13.5 67t36.5 54.5t54.5 37t66.5 13.5q36 0 67 -13.5t54 -37t36.5 -54.5t13.5 -67 q0 -35 -13.5 -66.5t-36.5 -54.5t-54 -36.5t-67 -13.5t-67 13.5t-54 36.5t-36.5 54.5t-13.5 66.5z" />
<glyph unicode="@" d="M33 389q0 97 21.5 186t61 165.5t95.5 138.5t126 106.5t151.5 68.5t171.5 24q120 0 217.5 -41t166 -113.5t106 -173t37.5 -219.5q0 -98 -23.5 -174t-64.5 -128.5t-97 -79.5t-121 -27q-72 0 -116 39t-61 100q-35 -65 -83 -104.5t-114 -39.5q-41 0 -75 15.5t-59 46 t-38.5 75.5t-13.5 103q0 78 25.5 156.5t68.5 142.5t100.5 104t122.5 40q53 0 82.5 -32.5t45.5 -82.5l33 69q5 8 25.5 8.5t43.5 -5.5q24 -7 40 -17t12 -24l-72 -312q-8 -32 -7.5 -56t8 -39.5t20 -23t28.5 -7.5q28 0 52.5 17.5t42.5 50.5t28 80t10 105q0 88 -25.5 161 t-74 124.5t-118 80t-157.5 28.5q-102 0 -186.5 -42t-145 -115t-94 -170.5t-33.5 -208.5q0 -87 24 -158.5t70.5 -122.5t114 -79.5t155.5 -28.5q80 0 143.5 11.5t114.5 28.5q17 6 31.5 -4t25.5 -53q11 -44 5 -60.5t-22 -23.5q-26 -12 -60 -21.5t-73 -16t-80.5 -10.5t-82.5 -4 q-124 0 -222 38t-166.5 108.5t-104.5 171t-36 224.5zM496 379q0 -49 18.5 -73.5t47.5 -24.5q27 0 53.5 28t47.5 68t34 85t13 79q0 47 -15.5 74.5t-50.5 27.5q-24 0 -50 -23t-47.5 -60.5t-36 -85t-14.5 -95.5z" />
<glyph unicode="A" d="M-10 103q0 32 3.5 52t11 31t19.5 15t29 4h84l253 777h-167q-17 0 -29 4t-19.5 15.5t-11 31.5t-3.5 52t3.5 52t11 31t19.5 15t29 4h474q40 0 65 -15t36 -50l290 -917h87q17 0 29 -4t19.5 -15t11 -31t3.5 -52t-3.5 -52t-11 -31.5t-19.5 -15.5t-29 -4h-424q-17 0 -29 4 t-19.5 15.5t-11 31.5t-3.5 52t3.5 52t11 31t19.5 15t29 4h86l-45 145h-364l-45 -145h74q17 0 29 -4t19.5 -15t11 -31t3.5 -52t-3.5 -52t-11 -31.5t-19.5 -15.5t-29 -4h-404q-17 0 -29 4t-19.5 15.5t-11 31.5t-3.5 52zM486 555h249l-120 427h-6z" />
<glyph unicode="B" d="M70 102q0 32 3.5 52t11 31.5t19.5 15.5t29 4h107v777h-107q-17 0 -29 4t-19.5 15t-11 31t-3.5 52t3.5 52t11 31.5t19.5 15.5t29 4h521q108 0 185.5 -23t127.5 -65.5t73.5 -102t23.5 -132.5q0 -85 -42 -142.5t-112 -91.5q106 -29 167.5 -98t61.5 -188q0 -86 -28.5 -150 t-83.5 -107.5t-134.5 -65t-182.5 -21.5h-577q-17 0 -29 4t-19.5 15t-11 31t-3.5 52zM490 215h192q100 0 147 35t47 104q0 75 -47.5 110t-146.5 35h-192v-284zM490 714h142q91 0 134.5 31.5t43.5 98.5q0 68 -42.5 98t-135.5 30h-142v-258z" />
<glyph unicode="C" d="M103 594q0 142 39 256t109 194t165 122.5t208 42.5q94 0 157.5 -34t102.5 -92v63q0 34 29 48.5t93 14.5q32 0 53 -3.5t33 -11t17 -19.5t5 -29v-384q0 -34 -30 -48.5t-102 -14.5q-36 0 -58.5 3.5t-36 11t-18.5 19.5t-5 29q0 48 -13.5 88.5t-40 70t-65.5 45.5t-91 16 q-141 0 -212 -100.5t-71 -287.5t76 -288t217 -101q92 0 173 25.5t168 69.5q30 15 58 0t50 -75q15 -41 15 -68q0 -14 -4 -25q-11 -32 -43 -48q-105 -52 -212.5 -79t-214.5 -27q-124 0 -225.5 43t-174 122.5t-112 193.5t-39.5 257z" />
<glyph unicode="D" d="M60 102q0 32 3.5 52t11 31.5t19.5 15.5t29 4h97v777h-97q-17 0 -29 4t-19.5 15t-11 31t-3.5 52t3.5 52t11 31.5t19.5 15.5t29 4h471q131 0 235 -39t176.5 -115t111 -186.5t38.5 -252.5q0 -143 -38.5 -253.5t-111 -186t-176.5 -115t-235 -39.5h-471q-17 0 -29 4t-19.5 15 t-11 31t-3.5 52zM470 215h104q156 0 234.5 96t78.5 283t-78.5 282.5t-234.5 95.5h-104v-757z" />
<glyph unicode="E" d="M60 102q0 32 3.5 52t11 31.5t19.5 15.5t29 4h97v777h-97q-17 0 -29 4t-19.5 15t-11 31t-3.5 52t3.5 52t11 31.5t19.5 15.5t29 4h912q35 0 50 -15t15 -50v-302q0 -34 -29 -48.5t-93 -14.5q-32 0 -53 3.5t-33 11t-17 19.5t-5 29v152h-400v-253h244q17 0 29 -5t19.5 -17 t11 -33t3.5 -53t-3.5 -52.5t-11 -32.5t-19.5 -17t-29 -5h-244v-289h410v202q0 34 29 48.5t97 14.5q34 0 56 -3.5t35 -11t18 -19.5t5 -29v-352q0 -35 -15 -50t-50 -15h-932q-17 0 -29 4t-19.5 15t-11 31t-3.5 52z" />
<glyph unicode="F" d="M60 102q0 32 3.5 52t11 31.5t19.5 15.5t29 4h127v777h-127q-17 0 -29 4t-19.5 15t-11 31t-3.5 52t3.5 52t11 31.5t19.5 15.5t29 4h932q35 0 50 -15t15 -50v-302q0 -34 -29 -48.5t-93 -14.5q-32 0 -53 3.5t-33 11t-17 19.5t-5 29v152h-390v-305h304q17 0 29 -5t19.5 -17 t11 -33t3.5 -53t-3.5 -52.5t-11 -32.5t-19.5 -17t-29 -5h-304v-247h217q17 0 29 -4t19.5 -15.5t11 -31.5t3.5 -52t-3.5 -52t-11 -31t-19.5 -15t-29 -4h-594q-17 0 -29 4t-19.5 15t-11 31t-3.5 52z" />
<glyph unicode="G" d="M73 594q0 142 39 256t109 194t165 122.5t208 42.5q94 0 157.5 -31.5t102.5 -86.5v55q0 34 29 48.5t93 14.5q32 0 53 -3.5t33 -11t17 -19.5t5 -29v-344q0 -34 -30 -48.5t-102 -14.5q-36 0 -58.5 3.5t-36 11t-18.5 19.5t-5 29q0 84 -51 132t-159 48q-141 0 -212 -100.5 t-71 -287.5t76 -288t217 -101q111 0 210 30v167h-193q-17 0 -29 4t-19.5 15t-11 31t-3.5 52t3.5 52t11 31.5t19.5 15.5t29 4h474q17 0 29 -4t19.5 -15.5t11 -31.5t3.5 -52t-3.5 -52t-11 -31t-19.5 -15t-29 -4h-31v-259q0 -50 -36 -69q-95 -49 -206 -72.5t-228 -23.5 q-124 0 -225.5 43t-174 122.5t-112 193.5t-39.5 257z" />
<glyph unicode="H" d="M50 102q0 32 3.5 52t11 31.5t19.5 15.5t29 4h57v777h-57q-17 0 -29 4t-19.5 15t-11 31t-3.5 52t3.5 52t11 31.5t19.5 15.5t29 4h374q17 0 29 -4t19.5 -15.5t11 -31.5t3.5 -52t-3 -52t-11 -31t-20 -15t-29 -4h-67v-263h388v263h-67q-17 0 -29 4t-19.5 15t-11 31t-3.5 52 t3.5 52t11 31.5t19.5 15.5t29 4h374q17 0 29 -4t19.5 -15.5t11 -31.5t3.5 -52t-3 -52t-11 -31t-20 -15t-29 -4h-57v-777h57q17 0 29 -4t19.5 -15.5t11 -31.5t3.5 -52t-3 -52t-11 -31t-20 -15t-29 -4h-374q-17 0 -29 4t-19.5 15t-11 31t-3.5 52t3.5 52t11 31.5t19.5 15.5 t29 4h67v299h-388v-299h67q17 0 29 -4t19.5 -15.5t11 -31.5t3.5 -52t-3 -52t-11 -31t-20 -15t-29 -4h-374q-17 0 -29 4t-19.5 15t-11 31t-3.5 52z" />
<glyph unicode="I" d="M170 102q0 32 3.5 52t11 31.5t19.5 15.5t29 4h256v777h-236q-17 0 -29 4t-19.5 15t-11 31t-3.5 52t3.5 52t11 31.5t19.5 15.5t29 4h722q17 0 29 -4t19.5 -15.5t11 -31.5t3.5 -52t-3.5 -52t-11 -31t-19.5 -15t-29 -4h-236v-777h256q17 0 29 -4t19.5 -15.5t11 -31.5 t3.5 -52t-3.5 -52t-11 -31t-19.5 -15t-29 -4h-762q-17 0 -29 4t-19.5 15t-11 31t-3.5 52z" />
<glyph unicode="J" d="M99 175v324q0 34 30 48.5t102 14.5q36 0 58.5 -3.5t36 -11t18.5 -19.5t5 -29v-260q69 -34 166 -34q81 0 122.5 42.5t41.5 135.5v599h-306q-17 0 -29 4t-19.5 15t-11 31t-3.5 52t3.5 52t11 31.5t19.5 15.5t29 4h742q17 0 29 -4t19.5 -15.5t11 -31.5t3.5 -52t-3.5 -52 t-11 -31t-19.5 -15t-29 -4h-186v-619q0 -194 -108.5 -289.5t-316.5 -95.5q-235 0 -389 147q-16 16 -16 50z" />
<glyph unicode="K" d="M50 102q0 32 3.5 52t11 31.5t19.5 15.5t29 4h107v777h-107q-17 0 -29 4t-19.5 15t-11 31t-3.5 52t3.5 52t11 31.5t19.5 15.5t29 4h404q17 0 29 -4t19.5 -15.5t11 -31.5t3.5 -52t-3.5 -52t-11 -31t-19.5 -15t-29 -4h-47v-320l324 320h-53q-17 0 -29 4t-19.5 15t-11 31 t-3.5 52t3.5 52t11 31.5t19.5 15.5t29 4h389q17 0 29 -4t19.5 -15.5t11 -31.5t3.5 -52t-3.5 -52t-11 -31t-19.5 -15t-29 -4h-43l-350 -341q57 -3 103 -30.5t79 -75.5q22 -31 39.5 -64t33.5 -66t31 -64.5t31 -58.5q20 -35 44.5 -56t56.5 -21h10q17 0 29 -4t19.5 -15.5 t11 -31.5t3.5 -52t-3.5 -52t-11 -31t-19.5 -15t-29 -4h-139q-33 0 -60 11.5t-49 31t-40 45t-33 54.5q-16 30 -30.5 62t-29.5 63.5t-29.5 60.5t-30.5 53q-26 38 -57.5 61t-66.5 23q-44 0 -79 -34l-51 -50v-176h115q17 0 29 -4t19.5 -15.5t11 -31.5t3.5 -52t-3.5 -52t-11 -31 t-19.5 -15t-29 -4h-472q-17 0 -29 4t-19.5 15t-11 31t-3.5 52z" />
<glyph unicode="L" d="M60 102q0 32 3.5 52t11 31.5t19.5 15.5t29 4h146v777h-146q-17 0 -29 4t-19.5 15t-11 31t-3.5 52t3.5 52t11 31.5t19.5 15.5t29 4h614q17 0 29 -4t19.5 -15.5t11 -31.5t3.5 -52t-3.5 -52t-11 -31t-19.5 -15t-29 -4h-218v-767h351v312q0 34 30 48.5t102 14.5 q36 0 58.5 -3.5t36 -11t18.5 -19.5t5 -29v-462q0 -35 -15 -50t-50 -15h-932q-17 0 -29 4t-19.5 15t-11 31t-3.5 52z" />
<glyph unicode="M" d="M10 102q0 32 3.5 52t11 31.5t19.5 15.5t29 4h59l15 777h-54q-17 0 -29 4t-19.5 15t-11 31t-3.5 52t3.5 52t11 31.5t19.5 15.5t29 4h284q20 0 33.5 -6.5t20.5 -24.5l183 -491l182 491q7 18 20.5 24.5t33.5 6.5h285q17 0 29 -4t19.5 -15.5t11 -31.5t3.5 -52t-3.5 -52 t-11 -31t-19.5 -15t-29 -4h-54l14 -777h60q17 0 29 -4t19.5 -15.5t11 -31.5t3.5 -52t-3.5 -52t-11 -31t-19.5 -15t-29 -4h-374q-17 0 -29 4t-19.5 15t-11 31t-3.5 52t3.5 52t11 31.5t19.5 15.5t29 4h92l-6 592l-151 -408q-13 -35 -35.5 -49.5t-65.5 -14.5t-66 14.5t-37 49.5 l-152 405l-6 -589h93q17 0 29 -4t19.5 -15.5t11 -31.5t3.5 -52t-3.5 -52t-11 -31t-19.5 -15t-29 -4h-374q-17 0 -29 4t-19.5 15t-11 31t-3.5 52z" />
<glyph unicode="N" d="M50 102q0 32 3.5 52t11 31.5t19.5 15.5t29 4h67v777h-67q-17 0 -29 4t-19.5 15t-11 31t-3.5 52t3.5 52t11 31.5t19.5 15.5t29 4h264q19 0 33 -6t23 -21l415 -687v509h-88q-17 0 -29 4t-19.5 15t-11 31t-3.5 52t3.5 52t11 31.5t19.5 15.5t29 4h375q17 0 29 -4t19.5 -15.5 t11 -31.5t3.5 -52t-3.5 -52t-11 -31t-19.5 -15t-29 -4h-57v-938q0 -32 -23.5 -49t-86.5 -17q-24 0 -41 3.5t-29.5 10t-21 16.5t-16.5 23l-450 745v-571h107q17 0 29 -4t19.5 -15.5t11 -31.5t3.5 -52t-3.5 -52t-11 -31t-19.5 -15t-29 -4h-404q-17 0 -29 4t-19.5 15t-11 31 t-3.5 52z" />
<glyph unicode="O" d="M63 594q0 142 39.5 256t112 194t174 122.5t225.5 42.5t225.5 -42.5t174 -122.5t112 -194t39.5 -256q0 -143 -39.5 -257t-112 -193.5t-174 -122.5t-225.5 -43t-225.5 43t-174 122.5t-112 193.5t-39.5 257zM331 594q0 -187 71 -288t212 -101t212 101t71 288t-71 287.5 t-212 100.5t-212 -100.5t-71 -287.5z" />
<glyph unicode="P" d="M60 102q0 32 3.5 52t11 31.5t19.5 15.5t29 4h147v777h-147q-17 0 -29 4t-19.5 15t-11 31t-3.5 52t3.5 52t11 31.5t19.5 15.5t29 4h547q232 0 349.5 -104.5t117.5 -297.5t-117.5 -298t-349.5 -105h-150v-177h217q17 0 29 -4t19.5 -15.5t11 -31.5t3.5 -52t-3.5 -52t-11 -31 t-19.5 -15t-29 -4h-614q-17 0 -29 4t-19.5 15t-11 31t-3.5 52zM520 597h119q118 0 179 45.5t61 142.5t-61 142t-179 45h-119v-375z" />
<glyph unicode="Q" d="M63 634q0 131 39.5 237.5t112 181.5t174 115.5t225.5 40.5t225.5 -40.5t174 -115.5t112 -181.5t39.5 -237.5t-39.5 -237.5t-112 -181.5t-174 -116t-225.5 -41q-13 0 -25 0.5t-20 1.5l-106 -106q45 17 83 23t73 6q34 0 65.5 -4.5t61 -10t58.5 -10t59 -4.5q35 0 72 8.5 t81 31.5q29 15 57.5 -3.5t47.5 -57.5q18 -38 18 -71v-6q-2 -36 -34 -60q-60 -45 -114.5 -61t-108.5 -16q-42 0 -84 7t-85.5 15t-90 15t-96.5 7q-49 0 -107 -10t-122 -37q-7 -3 -14 -3q-8 0 -17 4q-16 7 -31 22.5t-27.5 37t-18 43.5t-3.5 43t16 35l188 200 q-76 30 -136.5 80.5t-103 119t-65 153t-22.5 183.5zM331 634q0 -82 18 -146.5t53.5 -109.5t88.5 -69t123 -24t123 24t88.5 69t53.5 109.5t18 146.5t-18 146.5t-53.5 109.5t-88.5 68.5t-123 23.5t-123 -23.5t-88.5 -68.5t-53.5 -109.5t-18 -146.5z" />
<glyph unicode="R" d="M60 102q0 32 3.5 52t11 31.5t19.5 15.5t29 4h107v777h-107q-17 0 -29 4t-19.5 15t-11 31t-3.5 52t3.5 52t11 31.5t19.5 15.5t29 4h527q211 0 324 -92t113 -271q0 -120 -61 -191t-177 -100q23 -11 42.5 -25.5t36.5 -31.5q22 -23 40 -50t33 -54t28.5 -53t27.5 -48 q19 -29 40 -47.5t49 -18.5h19q17 0 29 -4t19.5 -15.5t11 -31.5t3.5 -52t-3.5 -52t-11 -31t-19.5 -15t-29 -4h-107q-66 0 -114.5 33.5t-92.5 105.5q-32 53 -58.5 112t-64.5 113q-18 26 -38.5 44.5t-45 30t-55.5 17t-71 5.5h-38v-256h117q17 0 29 -4t19.5 -15.5t11 -31.5 t3.5 -52t-3.5 -52t-11 -31t-19.5 -15t-29 -4h-474q-17 0 -29 4t-19.5 15t-11 31t-3.5 52zM480 676h149q103 0 151.5 36.5t48.5 111.5t-48.5 111.5t-151.5 36.5h-149v-296z" />
<glyph unicode="S" d="M149 846q0 80 28 146.5t79.5 114.5t123 75t158.5 27q81 0 148.5 -26t117.5 -74v37q0 34 24 48.5t88 14.5t91 -14.5t27 -48.5v-274q0 -34 -21.5 -48.5t-70.5 -14.5q-34 0 -52.5 8t-29.5 24q-46 72 -119 113.5t-173 41.5q-75 0 -115.5 -38t-40.5 -95q0 -30 19 -48.5 t51 -31.5q39 -15 93.5 -24.5t115 -21.5t122 -30t114.5 -50q34 -21 63.5 -49.5t51 -66.5t33.5 -87t12 -110q0 -81 -25.5 -148.5t-77.5 -115.5t-129.5 -75t-182.5 -27q-167 0 -283 101v-38q0 -34 -24 -48.5t-88 -14.5t-91 14.5t-27 48.5v334q0 34 21.5 48.5t70.5 14.5 q35 0 55.5 -9t31.5 -31q54 -102 128 -154.5t176 -52.5q90 0 135 36.5t45 99.5q0 42 -21.5 69t-58.5 45q-40 19 -93 31.5t-111 24.5t-117 27.5t-110 42.5q-35 18 -64.5 43t-51.5 58.5t-34 77.5t-12 100z" />
<glyph unicode="T" d="M98 700v422q0 35 15 50t50 15h902q35 0 50 -15t15 -50v-422q0 -34 -27.5 -48.5t-84.5 -14.5q-56 0 -77 14.5t-21 48.5v272h-181v-767h216q17 0 29 -4t19.5 -15.5t11 -31.5t3.5 -52t-3.5 -52t-11 -31t-19.5 -15t-29 -4h-682q-17 0 -29 4t-19.5 15t-11 31t-3.5 52t3.5 52 t11 31.5t19.5 15.5t29 4h216v767h-181v-272q0 -34 -27.5 -48.5t-84.5 -14.5q-56 0 -77 14.5t-21 48.5z" />
<glyph unicode="U" d="M50 1084q0 32 3.5 52t11 31.5t19.5 15.5t29 4h374q17 0 29 -4t19.5 -15.5t11 -31.5t3.5 -52t-3.5 -52t-11 -31t-19.5 -15t-29 -4h-77v-549q0 -60 15 -103t42 -71t64.5 -41t82.5 -13t82.5 13t64.5 41t42 71t15 103v549h-77q-17 0 -29 4t-19.5 15t-11 31t-3.5 52t3.5 52 t11 31.5t19.5 15.5t29 4h374q17 0 29 -4t19.5 -15.5t11 -31.5t3.5 -52t-3.5 -52t-11 -31t-19.5 -15t-29 -4h-47v-569q0 -105 -31.5 -186t-90.5 -136.5t-143 -84t-189 -28.5t-189 28.5t-143 84t-90.5 136.5t-31.5 186v569h-47q-17 0 -29 4t-19.5 15t-11 31t-3.5 52z" />
<glyph unicode="V" d="M-10 1084q0 32 3.5 52t11 31.5t19.5 15.5t29 4h434q17 0 29 -4t19.5 -15.5t11 -31.5t3.5 -52t-3.5 -52t-11 -31t-19.5 -15t-29 -4h-89l215 -613l229 613h-71q-17 0 -29 4t-19.5 15t-11 31t-3.5 52t3.5 52t11 31.5t19.5 15.5t29 4h404q17 0 29 -4t19.5 -15.5t11 -31.5 t3.5 -52t-3.5 -52t-11 -31t-19.5 -15t-29 -4h-68l-363 -939q-7 -18 -17 -30t-25.5 -20t-37.5 -11.5t-53 -3.5t-53 3.5t-37 11.5t-25 20.5t-16 29.5l-350 939h-77q-17 0 -29 4t-19.5 15t-11 31t-3.5 52z" />
<glyph unicode="W" d="M-20 1084q0 32 3.5 52t11 31.5t19.5 15.5t29 4h394q17 0 29 -4t19.5 -15.5t11 -31.5t3.5 -52t-3.5 -52t-11 -31t-19.5 -15t-29 -4h-117l53 -584l146 428q6 20 24.5 33.5t69.5 13.5q52 0 73 -10t27 -30l147 -435l54 584h-103q-17 0 -29 4t-19.5 15t-11 31t-3.5 52t3.5 52 t11 31.5t19.5 15.5t29 4h374q17 0 29 -4t19.5 -15.5t11 -31.5t3.5 -52t-3.5 -52t-11 -31t-19.5 -15t-29 -4h-56l-101 -939q-2 -18 -8.5 -30.5t-20 -20t-36 -11t-56.5 -3.5q-68 0 -97 15.5t-40 49.5l-160 471l-162 -471q-6 -17 -15.5 -29.5t-25.5 -20.5t-40 -11.5t-58 -3.5 t-56 3.5t-35.5 11t-19.5 20t-8 30.5l-97 939h-50q-17 0 -29 4t-19.5 15t-11 31t-3.5 52z" />
<glyph unicode="X" d="M30 102q0 32 3.5 52t11 31.5t19.5 15.5t29 4h62l291 410l-263 367h-60q-17 0 -29 4t-19.5 15t-11 31t-3.5 52t3.5 52t11 31.5t19.5 15.5t29 4h394q17 0 29 -4t19.5 -15.5t11 -31.5t3.5 -52t-3.5 -52t-11 -31t-19.5 -15t-29 -4h-43l146 -209l145 209h-24q-17 0 -29 4 t-19.5 15t-11 31t-3.5 52t3.5 52t11 31.5t19.5 15.5t29 4h364q17 0 29 -4t19.5 -15.5t11 -31.5t3.5 -52t-3.5 -52t-11 -31t-19.5 -15t-29 -4h-56l-266 -378l291 -399h61q17 0 29 -4t19.5 -15.5t11 -31.5t3.5 -52t-3.5 -52t-11 -31t-19.5 -15t-29 -4h-404q-17 0 -29 4 t-19.5 15t-11 31t-3.5 52t3.5 52t11 31.5t19.5 15.5t29 4h52l-173 244l-171 -244h38q17 0 29 -4t19.5 -15.5t11 -31.5t3.5 -52t-3.5 -52t-11 -31t-19.5 -15t-29 -4h-384q-17 0 -29 4t-19.5 15t-11 31t-3.5 52z" />
<glyph unicode="Y" d="M40 1084q0 32 3.5 52t11 31.5t19.5 15.5t29 4h394q17 0 29 -4t19.5 -15.5t11 -31.5t3.5 -52t-3.5 -52t-11 -31t-19.5 -15t-29 -4h-67l186 -292l188 292h-53q-17 0 -29 4t-19.5 15t-11 31t-3.5 52t3.5 52t11 31.5t19.5 15.5t29 4h374q17 0 29 -4t19.5 -15.5t11 -31.5 t3.5 -52t-3.5 -52t-11 -31t-19.5 -15t-29 -4h-44l-342 -523v-254h196q17 0 29 -4t19.5 -15.5t11 -31.5t3.5 -52t-3.5 -52t-11 -31t-19.5 -15t-29 -4h-642q-17 0 -29 4t-19.5 15t-11 31t-3.5 52t3.5 52t11 31.5t19.5 15.5t29 4h196v255l-340 522h-46q-17 0 -29 4t-19.5 15 t-11 31t-3.5 52z" />
<glyph unicode="Z" d="M138 102q0 66 20 93l574 777h-334v-202q0 -34 -29 -48.5t-93 -14.5q-32 0 -53 3.5t-33 11t-17 19.5t-5 29v352q0 35 15 50t50 15h784q17 0 29 -4t19.5 -15.5t11 -31.5t3.5 -52t-6 -54.5t-17 -37.5l-574 -777h367v222q0 34 29 48.5t93 14.5q32 0 53 -3.5t33 -11t17 -19.5 t5 -29v-372q0 -35 -15 -50t-50 -15h-814q-17 0 -29 4t-19.5 15t-11 31t-3.5 52z" />
<glyph unicode="[" d="M290 -330v1579q0 34 14.5 48.5t48.5 14.5h510q17 0 29 -4t19.5 -15.5t11 -31.5t3.5 -52t-3.5 -52t-11 -31t-19.5 -15t-29 -4h-323v-1295h323q17 0 29 -4t19.5 -15t11 -31t3.5 -52t-3.5 -52t-11 -31.5t-19.5 -15.5t-29 -4h-510q-34 0 -48.5 14.5t-14.5 48.5z" />
<glyph unicode="\" d="M169.5 1269.5q10.5 21.5 34 37t54 24t59.5 8.5q27 0 48.5 -8.5t29.5 -25.5l662 -1488q12 -26 1 -47.5t-34.5 -37t-54.5 -24t-60 -8.5q-26 0 -47 8t-29 25l-662 1488q-12 27 -1.5 48.5z" />
<glyph unicode="]" d="M302 -290q0 32 3.5 52t11 31t19.5 15t29 4h323v1295h-323q-17 0 -29 4t-19.5 15t-11 31t-3.5 52t3.5 52t11 31.5t19.5 15.5t29 4h510q34 0 48.5 -14.5t14.5 -48.5v-1579q0 -34 -14.5 -48.5t-48.5 -14.5h-510q-17 0 -29 4t-19.5 15.5t-11 31.5t-3.5 52z" />
<glyph unicode="^" d="M194.5 533.5q-4.5 13.5 3.5 28.5l318 610q9 18 31 27.5t67 9.5q44 0 66.5 -9.5t31.5 -27.5l318 -610q8 -15 3.5 -28.5t-18 -24.5t-33.5 -19.5t-42 -13.5t-44 -7t-41.5 0.5t-33.5 9t-20 18.5l-187 390l-187 -390q-6 -12 -20 -18.5t-33.5 -9t-41.5 -0.5t-44 7 q-23 5 -42.5 13.5t-33 19.5t-18 24.5z" />
<glyph unicode="_" d="M-38 -401q0 36 1.5 58t5.5 34t10.5 16.5t15.5 4.5h1238q9 0 15.5 -4.5t10.5 -16.5t5.5 -34t1.5 -58t-1.5 -58t-5.5 -34t-10.5 -16t-15.5 -4h-1238q-9 0 -15.5 4t-10.5 16t-5.5 34t-1.5 58z" />
<glyph unicode="`" d="M257.5 1198.5q-3.5 33.5 26.5 102.5q30 68 61 87.5t59 3.5l408 -247q20 -12 25.5 -31.5t-2.5 -41.5q-8 -23 -26 -34.5t-42 -4.5l-480 125q-26 7 -29.5 40.5z" />
<glyph unicode="a" d="M110 295q0 70 25.5 125t74 92.5t118 57t158.5 19.5q133 0 283 -30v29q0 31 -10 55.5t-32.5 41.5t-60 25.5t-91.5 8.5q-60 0 -131 -15t-140 -38q-16 -5 -30 -5.5t-27 7t-25 25t-23 47.5q-17 46 -17 75q0 9 2 17q7 32 42 45q47 17 96.5 30t98 21.5t95 13t87.5 4.5 q114 0 193.5 -25.5t129 -73.5t71.5 -116t22 -152v-289q0 -40 17 -62.5t49 -22.5h31q17 0 29 -4t19.5 -15.5t11 -31.5t3.5 -52t-3.5 -52t-11 -31t-19.5 -15t-29 -4h-112q-60 0 -108 24.5t-74 81.5q-77 -60 -164.5 -94t-183.5 -34q-86 0 -153.5 22t-114.5 63.5t-71.5 100 t-24.5 131.5zM368 285q0 -48 35.5 -72t102.5 -24q72 0 139 28.5t124 74.5v64q-70 14 -133.5 20.5t-124.5 6.5q-71 0 -107 -25t-36 -73z" />
<glyph unicode="b" d="M27 1209q0 32 3.5 52t11 31.5t19.5 15.5t29 4h284q34 0 48.5 -14.5t14.5 -48.5v-421q51 56 117 87t146 31q101 0 181 -37.5t135.5 -103t85 -154t29.5 -189.5t-29.5 -189.5t-85 -154t-135.5 -103t-181 -37.5q-97 0 -174.5 45t-128.5 124v-84q0 -34 -14.5 -48.5 t-48.5 -14.5h-224q-17 0 -29 4t-19.5 15.5t-11 31.5t-3.5 52t3.5 52t11 31t19.5 15t29 4h77v902h-97q-17 0 -29 4t-19.5 15t-11 31t-3.5 52zM430 462q0 -62 18.5 -110t50 -80.5t73 -49.5t88.5 -17t84.5 18t64 52t40.5 81t14 106q0 58 -14 105.5t-40.5 81.5t-64 52t-84.5 18 t-88.5 -17t-73 -49.5t-50 -80.5t-18.5 -110z" />
<glyph unicode="c" d="M127 462q0 107 36.5 196t101 153t151.5 99.5t188 35.5q81 0 137.5 -28.5t91.5 -88.5v54q0 34 29 48.5t93 14.5q32 0 53 -3.5t33 -11t17 -19.5t5 -29v-321q0 -34 -30 -48.5t-102 -14.5q-36 0 -58.5 3.5t-36 11t-18.5 19.5t-5 29q0 31 -11 59t-33.5 50t-56 35t-78.5 13 q-54 0 -98.5 -18t-75.5 -52t-48 -81.5t-17 -105.5q0 -59 17 -106t48 -81t75.5 -52t98.5 -18q80 0 160 25.5t154 68.5q29 17 58 3.5t54 -72.5q18 -43 18 -72q0 -11 -2 -20q-10 -33 -41 -50q-90 -50 -192 -80t-209 -30q-116 0 -209.5 36t-159.5 100.5t-102 153.5t-36 194z" />
<glyph unicode="d" d="M97 447q0 101 30 187t86.5 148.5t136 98t178.5 35.5q79 0 145.5 -30t117.5 -85v306h-197q-17 0 -29 4t-19.5 15t-11 31t-3.5 52t3.5 52t11 31.5t19.5 15.5t29 4h384q34 0 48.5 -14.5t14.5 -48.5v-1044h87q17 0 29 -4t19.5 -15t11 -31t3.5 -52t-3.5 -52t-11 -31.5 t-19.5 -15.5t-29 -4h-234q-34 0 -48.5 14.5t-14.5 48.5v69q-52 -74 -129 -114t-174 -40q-99 0 -178.5 35.5t-136 98t-86.5 148.5t-30 187zM365 447q0 -118 55.5 -180t147.5 -62q47 0 88.5 15t73 45t50 75.5t18.5 106.5t-18.5 106.5t-50 75.5t-73 45t-88.5 15 q-92 0 -147.5 -62t-55.5 -180z" />
<glyph unicode="e" d="M117 462q0 105 34 193.5t98.5 153t156.5 101t208 36.5q117 0 206 -38.5t148.5 -107t90 -163t30.5 -205.5q0 -34 -14.5 -48t-48.5 -14h-642q20 -81 76 -123t144 -42q81 0 168.5 12.5t187.5 42.5q32 10 53 -6.5t38 -77.5q8 -31 10 -52.5t-3 -36t-16.5 -23.5t-29.5 -15 q-100 -33 -210 -52t-218 -19q-112 0 -199 36t-146.5 100.5t-90.5 153.5t-31 194zM388 565h440q-17 72 -72 113t-142 41q-91 0 -147.5 -38t-78.5 -116z" />
<glyph unicode="f" d="M167 102q0 32 3.5 52t11 31.5t19.5 15.5t29 4h183v444h-183q-17 0 -29 5t-19.5 17t-11 32.5t-3.5 52.5t3.5 53t11 33t19.5 17t29 5h183v73q0 188 91 284t266 96q71 0 146.5 -13t157.5 -44q17 -6 28.5 -16t17.5 -26q4 -12 4 -28v-9q-2 -22 -10 -53q-8 -30 -18.5 -48 t-23.5 -26t-27.5 -8t-30.5 5q-64 20 -117.5 29.5t-104.5 9.5q-62 0 -95.5 -39.5t-33.5 -126.5v-60h311q17 0 29 -5t19.5 -17t11 -33t3.5 -53t-3.5 -52.5t-11 -32.5t-19.5 -17t-29 -5h-311v-444h281q17 0 29 -4t19.5 -15.5t11 -31.5t3.5 -52t-3.5 -52t-11 -31t-19.5 -15 t-29 -4h-714q-17 0 -29 4t-19.5 15t-11 31t-3.5 52z" />
<glyph unicode="g" d="M97 477q0 101 30 187t86.5 148.5t136 98t178.5 35.5q97 0 174 -40t129 -115v70q0 34 14.5 48.5t48.5 14.5h234q17 0 29 -4t19.5 -15.5t11 -31.5t3.5 -52t-3.5 -52t-11 -31t-19.5 -15t-29 -4h-87v-723q0 -96 -28.5 -172t-86 -129.5t-144.5 -81.5t-205 -28q-73 0 -163 15 t-190 44q-35 11 -44 42q-3 10 -3 23q0 28 13 70q9 30 20 48t23.5 26.5t26.5 9t30 -3.5q70 -20 143.5 -33.5t133.5 -13.5q121 0 172.5 51.5t51.5 152.5v107q-51 -55 -117.5 -85t-145.5 -30q-99 0 -178.5 35.5t-136 98t-86.5 148.5t-30 187zM365 477q0 -118 55.5 -180 t147.5 -62q47 0 88.5 15t73 45t50 75.5t18.5 106.5t-18.5 106.5t-50 75.5t-73 45t-88.5 15q-92 0 -147.5 -62t-55.5 -180z" />
<glyph unicode="h" d="M47 1209q0 32 3.5 52t11 31.5t19.5 15.5t29 4h284q34 0 48.5 -14.5t14.5 -48.5v-486q63 96 135 139.5t155 43.5q69 0 125 -23t95 -65t60.5 -102.5t21.5 -135.5v-415h77q17 0 29 -4t19.5 -15.5t11 -31.5t3.5 -52t-3.5 -52t-11 -31t-19.5 -15t-29 -4h-374q-17 0 -29 4 t-19.5 15t-11 31t-3.5 52t3.5 52t11 31.5t19.5 15.5t29 4h47v356q0 74 -25.5 116t-91.5 42q-45 0 -85.5 -28.5t-71.5 -76.5t-49.5 -112t-18.5 -134v-163h47q17 0 29 -4t19.5 -15.5t11 -31.5t3.5 -52t-3.5 -52t-11 -31t-19.5 -15t-29 -4h-374q-17 0 -29 4t-19.5 15t-11 31 t-3.5 52t3.5 52t11 31.5t19.5 15.5t29 4h77v902h-97q-17 0 -29 4t-19.5 15t-11 31t-3.5 52z" />
<glyph unicode="i" d="M167 102q0 32 3.5 52t11 31.5t19.5 15.5t29 4h273v514h-193q-17 0 -29 4t-19.5 15t-11 31t-3.5 52t3.5 52t11 31.5t19.5 15.5t29 4h380q34 0 48.5 -14.5t14.5 -48.5v-656h281q17 0 29 -4t19.5 -15.5t11 -31.5t3.5 -52t-3.5 -52t-11 -31t-19.5 -15t-29 -4h-804 q-17 0 -29 4t-19.5 15t-11 31t-3.5 52zM503 1156v164q0 17 5.5 29t19.5 19.5t37.5 11t59.5 3.5q71 0 99.5 -14.5t28.5 -48.5v-164q0 -34 -26 -48.5t-97 -14.5t-99 14.5t-28 48.5z" />
<glyph unicode="j" d="M168 -265q-1 7 -1 16q0 28 18 73q12 30 24.5 46.5t26 23t28 5t29.5 -8.5q33 -15 67 -29t66 -25t62 -17.5t56 -6.5q62 0 95.5 39.5t33.5 126.5v741h-383q-17 0 -29 4t-19.5 15t-11 31t-3.5 52t3.5 52t11 31.5t19.5 15.5t29 4h570q34 0 48.5 -14.5t14.5 -48.5v-896 q0 -188 -91 -284t-266 -96q-87 0 -176.5 29t-180.5 75q-33 16 -41 46zM673 1156v164q0 17 5.5 29t19.5 19.5t37.5 11t59.5 3.5q71 0 99.5 -14.5t28.5 -48.5v-164q0 -34 -26 -48.5t-97 -14.5t-99 14.5t-28 48.5z" />
<glyph unicode="k" d="M57 1209q0 32 3.5 52t11 31.5t19.5 15.5t29 4h284q34 0 48.5 -14.5t14.5 -48.5v-722l260 212h-50q-17 0 -29 4t-19.5 14t-11 28t-3.5 46q0 56 14.5 74.5t48.5 18.5h414q34 0 48.5 -18.5t14.5 -74.5q0 -28 -3.5 -46t-11 -28t-19.5 -14t-29 -4h-40l-249 -201l243 -333h61 q17 0 29 -4t19.5 -15.5t11 -31.5t3.5 -52t-3.5 -52t-11 -31t-19.5 -15t-29 -4h-171q-23 0 -43 9t-35 31l-252 350l-138 -105v-80h87q17 0 29 -4t19.5 -15.5t11 -31.5t3.5 -52t-3.5 -52t-11 -31t-19.5 -15t-29 -4h-414q-17 0 -29 4t-19.5 15t-11 31t-3.5 52t3.5 52t11 31.5 t19.5 15.5t29 4h77v902h-97q-17 0 -29 4t-19.5 15t-11 31t-3.5 52z" />
<glyph unicode="l" d="M157 102q0 32 3.5 52t11 31.5t19.5 15.5t29 4h273v902h-233q-17 0 -29 4t-19.5 15t-11 31t-3.5 52t3.5 52t11 31.5t19.5 15.5t29 4h420q34 0 48.5 -14.5t14.5 -48.5v-1044h281q17 0 29 -4t19.5 -15.5t11 -31.5t3.5 -52t-3.5 -52t-11 -31t-19.5 -15t-29 -4h-804 q-17 0 -29 4t-19.5 15t-11 31t-3.5 52z" />
<glyph unicode="m" d="M-14 821q0 32 3.5 52t11 31.5t19.5 15.5t29 4h174q34 0 48.5 -14.5t14.5 -48.5v-144q48 115 111.5 172t138.5 57q78 0 124.5 -53t66.5 -150q47 102 107.5 152.5t131.5 50.5q44 0 80.5 -17.5t62.5 -54.5t40.5 -94.5t14.5 -136.5v-580q0 -34 -14.5 -48.5t-48.5 -14.5h-124 q-34 0 -48.5 14.5t-14.5 48.5v523q0 52 -12 77.5t-40 25.5q-46 0 -74 -70.5t-28 -215.5v-340q0 -34 -14.5 -48.5t-48.5 -14.5h-124q-34 0 -48.5 14.5t-14.5 48.5v523q0 52 -12 77.5t-40 25.5q-46 0 -74 -70.5t-28 -215.5v-340q0 -34 -14.5 -48.5t-48.5 -14.5h-124 q-34 0 -48.5 14.5t-14.5 48.5v656h-57q-17 0 -29 4t-19.5 15t-11 31t-3.5 52z" />
<glyph unicode="n" d="M57 821q0 32 3.5 52t11 31.5t19.5 15.5t29 4h244q34 0 48.5 -14.5t14.5 -48.5v-145q70 122 153 176t177 54q69 0 125 -23t95 -65t60.5 -102.5t21.5 -135.5v-415h77q17 0 29 -4t19.5 -15.5t11 -31.5t3.5 -52t-3.5 -52t-11 -31t-19.5 -15t-29 -4h-374q-17 0 -29 4t-19.5 15 t-11 31t-3.5 52t3.5 52t11 31.5t19.5 15.5t29 4h47v356q0 74 -25.5 116t-91.5 42q-45 0 -85.5 -28.5t-71.5 -76.5t-49.5 -112t-18.5 -134v-163h47q17 0 29 -4t19.5 -15.5t11 -31.5t3.5 -52t-3.5 -52t-11 -31t-19.5 -15t-29 -4h-374q-17 0 -29 4t-19.5 15t-11 31t-3.5 52 t3.5 52t11 31.5t19.5 15.5t29 4h77v514h-97q-17 0 -29 4t-19.5 15t-11 31t-3.5 52z" />
<glyph unicode="o" d="M107 462q0 105 36 193.5t102 153t159.5 101t209.5 36.5t209.5 -36.5t159.5 -101t102 -153t36 -193.5t-36 -194t-102 -153.5t-159.5 -100.5t-209.5 -36t-209.5 36t-159.5 100.5t-102 153.5t-36 194zM375 462q0 -59 17 -106t48 -81t75.5 -52t98.5 -18t98.5 18t75.5 52 t48 81t17 106q0 58 -17 105.5t-48 81.5t-75.5 52t-98.5 18t-98.5 -18t-75.5 -52t-48 -81.5t-17 -105.5z" />
<glyph unicode="p" d="M37 -291q0 32 3.5 52t11 31.5t19.5 15.5t29 4h87v907h-87q-17 0 -29 4t-19.5 15t-11 31t-3.5 52t3.5 52t11 31.5t19.5 15.5t29 4h234q34 0 48.5 -14.5t14.5 -48.5v-70q51 75 128.5 115t174.5 40q99 0 178.5 -35.5t136 -98t86.5 -148.5t30 -187t-30 -187t-86.5 -148.5 t-136 -98t-178.5 -35.5q-80 0 -146 30t-117 85v-311h247q17 0 29 -4t19.5 -15.5t11 -31.5t3.5 -52t-3.5 -52t-11 -31t-19.5 -15t-29 -4h-584q-17 0 -29 4t-19.5 15t-11 31t-3.5 52zM430 477q0 -61 18.5 -106.5t50 -75.5t73 -45t88.5 -15q92 0 147.5 62t55.5 180t-55.5 180 t-147.5 62q-47 0 -88.5 -15t-73 -45t-50 -75.5t-18.5 -106.5z" />
<glyph unicode="q" d="M97 477q0 101 30 187t86.5 148.5t136 98t178.5 35.5q97 0 174 -40t129 -115v70q0 34 14.5 48.5t48.5 14.5h234q17 0 29 -4t19.5 -15.5t11 -31.5t3.5 -52t-3.5 -52t-11 -31t-19.5 -15t-29 -4h-87v-907h107q17 0 29 -4t19.5 -15.5t11 -31.5t3.5 -52t-3.5 -52t-11 -31 t-19.5 -15t-29 -4h-574q-17 0 -29 4t-19.5 15t-11 31t-3.5 52t3.5 52t11 31.5t19.5 15.5t29 4h217v311q-51 -55 -117.5 -85t-145.5 -30q-99 0 -178.5 35.5t-136 98t-86.5 148.5t-30 187zM365 477q0 -118 55.5 -180t147.5 -62q47 0 88.5 15t73 45t50 75.5t18.5 106.5 t-18.5 106.5t-50 75.5t-73 45t-88.5 15q-92 0 -147.5 -62t-55.5 -180z" />
<glyph unicode="r" d="M127 102q0 32 3.5 52t11 31.5t19.5 15.5t29 4h147v514h-117q-17 0 -29 4t-19.5 15t-11 31t-3.5 52t3.5 52t11 31.5t19.5 15.5t29 4h274q34 0 48.5 -14.5t14.5 -48.5v-217q76 146 173 224t197 78q85 0 160 -56q37 -28 43 -66q1 -8 1 -17q0 -34 -18 -79q-24 -60 -55 -80 q-17 -10 -33 -11q-15 0 -30 8q-29 16 -58 23.5t-58 7.5q-58 0 -110.5 -28t-93 -78t-64.5 -119t-24 -151v-95h287q17 0 29 -4t19.5 -15.5t11 -31.5t3.5 -52t-3.5 -52t-11 -31t-19.5 -15t-29 -4h-684q-17 0 -29 4t-19.5 15t-11 31t-3.5 52z" />
<glyph unicode="s" d="M164 660q0 67 27.5 120t76 90t115 56.5t143.5 19.5q81 0 146.5 -19t121.5 -54v10q0 34 24 48.5t88 14.5t91 -14.5t27 -48.5v-211q0 -34 -21.5 -48.5t-70.5 -14.5q-53 0 -73 21q-62 65 -139 90.5t-172 25.5q-61 0 -93.5 -21.5t-32.5 -55.5q0 -23 20 -37.5t54 -22.5 q37 -9 86 -14t103.5 -11.5t110 -17.5t104.5 -31q36 -15 67.5 -36.5t54 -51.5t35.5 -69.5t13 -90.5q0 -71 -26 -128t-77 -97.5t-125 -62t-170 -21.5q-78 0 -141 19.5t-117 51.5v-8q0 -34 -29 -48.5t-93 -14.5t-91 14.5t-27 48.5v223q0 34 23.5 48.5t72.5 14.5q33 0 52.5 -7 t30.5 -21q54 -67 133 -94t166 -27q84 0 122 21.5t38 61.5q0 26 -24 41t-65 24t-94 15t-110 15t-113 23.5t-104 40.5q-60 33 -99 90t-39 150z" />
<glyph unicode="t" d="M97 756q0 32 3.5 53t11 33t19.5 17t29 5h193v282q0 34 30 48.5t102 14.5q36 0 58.5 -3.5t36 -11t18.5 -19.5t5 -29v-282h371q17 0 29 -5t19.5 -17t11 -33t3.5 -53t-3.5 -52.5t-11 -32.5t-19.5 -17t-29 -5h-371v-278q0 -87 33.5 -126.5t95.5 -39.5q25 0 55.5 6.5 t62.5 17.5t66 25t67 29q15 7 29.5 8.5t28 -5t26 -23t24.5 -46.5q18 -45 18 -73q1 -9 -1 -16q-8 -30 -41 -46q-91 -46 -180.5 -75t-176.5 -29q-175 0 -266 96t-91 284v291h-193q-17 0 -29 5t-19.5 17t-11 32.5t-3.5 52.5z" />
<glyph unicode="u" d="M50 822q0 32 3.5 52t11 31t19.5 15t29 4h264q34 0 48.5 -14.5t14.5 -48.5v-498q0 -74 25.5 -116t91.5 -42q45 0 85.5 28.5t71.5 76.5t49.5 111.5t18.5 134.5v163h-107q-17 0 -29 4t-19.5 15.5t-11 31.5t-3.5 52t3.5 52t11 31t19.5 15t29 4h294q34 0 48.5 -14.5 t14.5 -48.5v-656h77q17 0 29 -4t19.5 -15t11 -31t3.5 -52t-3.5 -52t-11 -31.5t-19.5 -15.5t-29 -4h-224q-34 0 -48.5 14.5t-14.5 48.5v145q-70 -122 -153 -176t-177 -54q-69 0 -125 23t-95 65t-60.5 102.5t-21.5 135.5v415h-77q-17 0 -29 4t-19.5 15.5t-11 31.5t-3.5 52z " />
<glyph unicode="v" d="M40 821q0 32 3.5 52t11 31.5t19.5 15.5t29 4h404q17 0 29 -4t19.5 -15.5t11 -31.5t3.5 -52t-3.5 -52t-11 -31t-19.5 -15t-29 -4h-67l177 -441l179 441h-55q-17 0 -29 4t-19.5 15t-11 31t-3.5 52t3.5 52t11 31.5t19.5 15.5t29 4h384q17 0 29 -4t19.5 -15.5t11 -31.5 t3.5 -52t-3.5 -52t-11 -31t-19.5 -15t-29 -4h-68l-293 -676q-14 -34 -47.5 -49.5t-105.5 -15.5q-36 0 -61.5 4t-43 12t-28.5 20t-18 29l-291 676h-66q-17 0 -29 4t-19.5 15t-11 31t-3.5 52z" />
<glyph unicode="w" d="M-20 821q0 32 3.5 52t11 31.5t19.5 15.5t29 4h344q17 0 29 -4t19.5 -15.5t11 -31.5t3.5 -52t-3.5 -52t-11 -31t-19.5 -15t-29 -4h-85l75 -388l138 339q11 26 31.5 41.5t64.5 15.5q45 0 65.5 -12t31.5 -38l137 -346l78 388h-72q-17 0 -29 4t-19.5 15t-11 31t-3.5 52 t3.5 52t11 31.5t19.5 15.5t29 4h334q17 0 29 -4t19.5 -15.5t11 -31.5t3.5 -52t-3.5 -52t-11 -31t-19.5 -15t-29 -4h-41l-146 -676q-8 -36 -34 -50.5t-87 -14.5t-87.5 16t-39.5 49l-140 355l-142 -355q-7 -17 -16.5 -29t-24.5 -20t-36.5 -12t-51.5 -4t-51 3.5t-35 11.5 t-21.5 20t-11.5 30l-143 676h-34q-17 0 -29 4t-19.5 15t-11 31t-3.5 52z" />
<glyph unicode="x" d="M70 102q0 32 3.5 52t11 31.5t19.5 15.5t29 4h54l254 264l-246 250h-52q-17 0 -29 4t-19.5 15t-11 31t-3.5 52t3.5 52t11 31.5t19.5 15.5t29 4h374q17 0 29 -4t19.5 -15.5t11 -31.5t3.5 -52t-3.5 -52t-11 -31t-19.5 -15t-29 -4h-13l128 -131l121 131h-22q-17 0 -29 4 t-19.5 15t-11 31t-3.5 52t3.5 52t11 31.5t19.5 15.5t29 4h354q17 0 29 -4t19.5 -15.5t11 -31.5t3.5 -52t-3.5 -52t-11 -31t-19.5 -15t-29 -4h-59l-241 -251l259 -263h51q17 0 29 -4t19.5 -15.5t11 -31.5t3.5 -52t-3.5 -52t-11 -31t-19.5 -15t-29 -4h-384q-17 0 -29 4 t-19.5 15t-11 31t-3.5 52t3.5 52t11 31.5t19.5 15.5t29 4h14l-131 134l-124 -134h17q17 0 29 -4t19.5 -15.5t11 -31.5t3.5 -52t-3.5 -52t-11 -31t-19.5 -15t-29 -4h-354q-17 0 -29 4t-19.5 15t-11 31t-3.5 52z" />
<glyph unicode="y" d="M40 821q0 32 3.5 52t11 31.5t19.5 15.5t29 4h404q17 0 29 -4t19.5 -15.5t11 -31.5t3.5 -52t-3.5 -52t-11 -31t-19.5 -15t-29 -4h-60l174 -380l174 380h-54q-17 0 -29 4t-19.5 15t-11 31t-3.5 52t3.5 52t11 31.5t19.5 15.5t29 4h384q17 0 29 -4t19.5 -15.5t11 -31.5 t3.5 -52t-3.5 -52t-11 -31t-19.5 -15t-29 -4h-64l-383 -776q-52 -105 -99.5 -172.5t-103 -107.5t-124 -57t-162.5 -20h-3q-27 0 -46 20q-19 21 -23 83q-2 34 0.5 57.5t9.5 37.5t17 20.5t24 7.5q59 3 100.5 17.5t76 46.5t66.5 84t73 130l-306 629h-75q-17 0 -29 4t-19.5 15 t-11 31t-3.5 52z" />
<glyph unicode="z" d="M138 102q0 27 7 45t25 37l523 535h-305v-114q0 -17 -5.5 -29t-19.5 -19.5t-37.5 -11t-59.5 -3.5t-57 3.5t-32.5 11t-15 19.5t-3.5 29v254q0 35 15 50t50 15h794q17 0 29 -4t19.5 -15t11 -31t3.5 -52q0 -27 -7 -45t-25 -37l-523 -535h325v124q0 17 5.5 29t19.5 19.5 t37.5 11t59.5 3.5t57 -3.5t32.5 -11t15 -19.5t3.5 -29v-264q0 -35 -15 -50t-50 -15h-814q-17 0 -29 4t-19.5 15t-11 31t-3.5 52z" />
<glyph unicode="{" d="M205 482q0 32 3.5 52t11 31t19.5 15t29 4q96 0 138 47.5t42 138.5v159q0 193 103.5 288t303.5 95q17 0 29 -4t19.5 -15.5t11 -31.5t3.5 -52t-3.5 -52t-11 -31t-19.5 -15t-29 -4q-78 0 -117.5 -45t-39.5 -145v-157q0 -51 -11.5 -93t-32.5 -76t-50 -61t-64 -48 q35 -21 64 -48t50 -61.5t32.5 -76.5t11.5 -93v-201q0 -100 39.5 -145t117.5 -45q17 0 29 -4t19.5 -15t11 -31t3.5 -52t-3.5 -52t-11 -31.5t-19.5 -15.5t-29 -4q-200 0 -303.5 94.5t-103.5 288.5v203q0 91 -42 138.5t-138 47.5q-17 0 -29 4t-19.5 15.5t-11 31.5t-3.5 52z" />
<glyph unicode="|" d="M489 -352v1623q0 34 34 48.5t98 14.5t91 -14.5t27 -48.5v-1623q0 -34 -34 -48.5t-98 -14.5t-91 14.5t-27 48.5z" />
<glyph unicode="}" d="M310 -290q0 32 3.5 52t11 31t19.5 15t29 4q78 0 117.5 45t39.5 145v201q0 51 11.5 93t32.5 76.5t50 61.5t64 48q-35 21 -64 48t-50 61t-32.5 76t-11.5 93v157q0 100 -39.5 145t-117.5 45q-17 0 -29 4t-19.5 15t-11 31t-3.5 52t3.5 52t11 31.5t19.5 15.5t29 4 q200 0 303.5 -95t103.5 -288v-159q0 -91 42 -138.5t138 -47.5q17 0 29 -4t19.5 -15t11 -31t3.5 -52t-3.5 -52t-11 -31.5t-19.5 -15.5t-29 -4q-96 0 -138 -47.5t-42 -138.5v-203q0 -194 -103.5 -288.5t-303.5 -94.5q-17 0 -29 4t-19.5 15.5t-11 31.5t-3.5 52z" />
<glyph unicode="~" d="M143.5 582q0.5 16 5 28.5t12.5 20.5q68 62 131 85.5t123 23.5q53 0 104.5 -13t102 -28t101 -28t103.5 -13q40 0 80.5 9.5t83.5 34.5q14 8 27 6.5t24 -10t19.5 -22.5t14.5 -30t8.5 -33t2 -33t-5 -29t-12.5 -20q-69 -62 -132 -85.5t-123 -23.5q-53 0 -104.5 13t-102 28 t-101.5 28t-103 13q-40 0 -80 -10t-83 -34q-14 -8 -27 -6.5t-24 10t-19.5 22t-14.5 30.5q-6 16 -8.5 33t-2 33z" />
<glyph unicode="&#xa0;" />
<glyph unicode="&#xa1;" d="M425 1020q0 39 15 73.5t40.5 60t60 40.5t73.5 15t73.5 -15t60 -40.5t40.5 -60t15 -73.5t-15 -74t-40.5 -60.5t-60 -40.5t-73.5 -15t-73.5 15t-60 40.5t-40.5 60.5t-15 74zM448 28l73 577q5 38 29.5 58t63.5 20t63.5 -20t29.5 -58l73 -577q6 -50 -41 -50h-250 q-47 0 -41 50z" />
<glyph unicode="&#xa2;" d="M127 602q0 96 30 178t83 144t126 102.5t159 53.5v169q0 34 18.5 48.5t74.5 14.5t74.5 -14.5t18.5 -48.5v-179q79 -27 122 -101v54q0 34 29 48.5t93 14.5q32 0 53 -3.5t33 -11t17 -19.5t5 -29v-321q0 -34 -30 -48.5t-102 -14.5q-36 0 -58.5 3.5t-36 11t-18.5 19.5t-5 29 q0 47 -25.5 86.5t-76.5 57.5v-495q61 10 120.5 32.5t116.5 55.5q29 17 58 3.5t54 -72.5t15.5 -92t-40.5 -50q-74 -41 -155.5 -69t-168.5 -37v-184q0 -34 -18.5 -48.5t-74.5 -14.5t-74.5 14.5t-18.5 48.5v189q-92 16 -166 57.5t-125.5 103.5t-79 142t-27.5 172zM395 602 q0 -85 34.5 -145t95.5 -89v468q-61 -29 -95.5 -89t-34.5 -145z" />
<glyph unicode="&#xa3;" d="M150 537q0 36 3.5 58t11 34t19.5 16.5t29 4.5h95q-13 24 -25 49t-21.5 51.5t-15 55.5t-5.5 61q0 73 25 135.5t73.5 108.5t119 72t161.5 26q162 0 335 -89q22 -11 34 -26t12 -37v-207q0 -34 -29 -48.5t-93 -14.5q-32 0 -53 3.5t-33 11t-17 19.5t-5 29v111q-31 15 -65 23 t-78 8q-63 0 -98 -36.5t-35 -97.5q0 -30 7.5 -57t19.5 -51.5t26.5 -49t28.5 -50.5h288q17 0 29 -4.5t19.5 -16.5t11 -34t3.5 -58t-3.5 -58t-11 -34t-19.5 -16t-29 -4h-241q-8 -61 -37.5 -114t-77.5 -104q42 16 76.5 22t64.5 6q24 0 45 -2.5t41 -6t40.5 -6t41.5 -2.5 q29 0 61 6.5t72 26.5q12 6 24.5 3t24.5 -13t23 -24.5t19 -32.5t13 -37t5.5 -36.5t-4 -32t-16.5 -22.5q-63 -47 -117 -63.5t-105 -16.5q-36 0 -71.5 6t-72 12.5t-76 12.5t-83.5 6q-48 0 -105 -10t-123 -37q-21 -9 -46 12.5t-42 55.5q-9 17 -14.5 35.5t-6 36t4 32t16.5 23.5 q41 32 73 62t54 61t34.5 65.5t14.5 75.5h-162q-17 0 -29 4t-19.5 16t-11 34t-3.5 58z" />
<glyph unicode="&#xa5;" d="M40 1084q0 32 3.5 52t11 31.5t19.5 15.5t29 4h394q17 0 29 -4t19.5 -15.5t11 -31.5t3.5 -52t-3.5 -52t-11 -31t-19.5 -15t-29 -4h-67l186 -292l188 292h-53q-17 0 -29 4t-19.5 15t-11 31t-3.5 52t3.5 52t11 31.5t19.5 15.5t29 4h374q17 0 29 -4t19.5 -15.5t11 -31.5 t3.5 -52t-3.5 -52t-11 -31t-19.5 -15t-29 -4h-44l-93 -142h57q34 0 48.5 -18.5t14.5 -74.5q0 -28 -3.5 -46t-11 -28t-19.5 -14t-29 -4h-178l-94 -143h252q34 0 48.5 -18.5t14.5 -74.5q0 -28 -3.5 -46t-11 -28t-19.5 -14t-29 -4h-286v-122h196q17 0 29 -4t19.5 -15.5 t11 -31.5t3.5 -52t-3.5 -52t-11 -31t-19.5 -15t-29 -4h-642q-17 0 -29 4t-19.5 15t-11 31t-3.5 52t3.5 52t11 31.5t19.5 15.5t29 4h196v122h-286q-17 0 -29 4t-19.5 14t-11 28t-3.5 46q0 56 14.5 74.5t48.5 18.5h252l-93 143h-179q-17 0 -29 4t-19.5 14t-11 28t-3.5 46 q0 56 14.5 74.5t48.5 18.5h58l-92 142h-46q-17 0 -29 4t-19.5 15t-11 31t-3.5 52z" />
<glyph unicode="&#xa6;" d="M489 271q0 34 34 48.5t98 14.5t91 -14.5t27 -48.5v-623q0 -34 -34 -48.5t-98 -14.5t-91 14.5t-27 48.5v623zM489 648v623q0 34 34 48.5t98 14.5t91 -14.5t27 -48.5v-623q0 -34 -34 -48.5t-98 -14.5t-91 14.5t-27 48.5z" />
<glyph unicode="&#xa7;" d="M159 583q0 72 29 130t84 103q-14 48 -14 100q0 60 19.5 110t58 86t94.5 55.5t129 19.5h394q35 0 50 -15t15 -50v-262q0 -34 -29 -48.5t-93 -14.5q-32 0 -53 3.5t-33 11t-17 19.5t-5 29v132h-193q-43 0 -66 -18.5t-23 -53.5q0 -34 20.5 -61.5t65.5 -49.5l291 -145 q90 -45 138 -118t48 -172q0 -72 -29.5 -130t-84.5 -104q15 -45 15 -99q0 -60 -19.5 -110t-58 -86t-94.5 -55.5t-129 -19.5h-394q-35 0 -50 15t-15 50v262q0 34 29 48.5t93 14.5q32 0 53 -3.5t33 -11t17 -19.5t5 -29v-132h193q43 0 66 18.5t23 53.5q0 34 -20.5 61.5 t-65.5 49.5l-291 145q-90 45 -138 118t-48 172zM407 592q0 -40 24.5 -69.5t75.5 -55.5l265 -132q21 -11 36 -20q13 22 13 50q0 40 -24.5 69.5t-75.5 55.5l-265 132q-10 5 -19 10l-18 10q-12 -23 -12 -50z" />
<glyph unicode="&#xa8;" d="M234 1195q0 31 12 58.5t32 47.5t47.5 32t58.5 12t58.5 -12t47.5 -32t32 -47.5t12 -58.5t-12 -58.5t-32 -47.5t-47.5 -32t-58.5 -12t-58.5 12t-47.5 32t-32 47.5t-12 58.5zM694 1195q0 31 12 58.5t32 47.5t47.5 32t58.5 12t58.5 -12t47.5 -32t32 -47.5t12 -58.5t-12 -58.5 t-32 -47.5t-47.5 -32t-58.5 -12t-58.5 12t-47.5 32t-32 47.5t-12 58.5z" />
<glyph unicode="&#xa9;" d="M28 594q0 131 43.5 243.5t121.5 195t185 129.5t235 47q127 0 234.5 -47t185.5 -129.5t121.5 -195t43.5 -243.5t-43.5 -244t-121.5 -195.5t-185.5 -129.5t-234.5 -47q-128 0 -235 47t-185 129.5t-121.5 195.5t-43.5 244zM181 594q0 -99 30.5 -183.5t87 -146.5t136 -97.5 t178.5 -35.5t178.5 35.5t136 97.5t87 146.5t30.5 183.5t-30.5 183.5t-87 146.5t-136 97t-178.5 35t-178.5 -35t-136 -97t-87 -146.5t-30.5 -183.5zM307 593q0 81 25 145t69 108t105 67.5t133 23.5q47 0 95 -11t91 -32q29 -14 33.5 -37.5t-10.5 -65.5q-14 -38 -29.5 -51 t-41.5 -4q-35 12 -69 20t-69 8q-71 0 -112.5 -44t-41.5 -127t41.5 -127t112.5 -44q35 0 69 8t69 20q26 9 41.5 -4t29.5 -51q15 -42 10.5 -65.5t-33.5 -37.5q-43 -21 -91 -32t-95 -11q-72 0 -133 23.5t-105 67.5t-69 108t-25 145z" />
<glyph unicode="&#xaa;" d="M229 709q0 108 76 167t213 59q51 0 105 -6t112 -17v22q0 48 -32.5 74.5t-116.5 26.5q-46 0 -100.5 -12t-107.5 -29q-31 -10 -50.5 5.5t-34.5 60.5q-11 33 -8.5 59t33.5 37q72 26 149.5 39.5t140.5 13.5q88 0 149 -19.5t99 -56.5t55 -89t17 -117v-222q0 -31 12.5 -48 t37.5 -17h24q26 0 37.5 -15.5t11.5 -64.5q0 -24 -2.5 -39.5t-8.5 -24t-15.5 -11.5t-22.5 -3h-86q-46 0 -83 18.5t-57 62.5q-59 -45 -126.5 -71.5t-141.5 -26.5q-66 0 -118 17t-87.5 48.5t-54.5 77t-19 101.5zM427 701q0 -36 27.5 -55t78.5 -19q55 0 107 22t95 57v50 q-54 11 -102.5 15.5t-95.5 4.5q-54 0 -82 -19.5t-28 -55.5z" />
<glyph unicode="&#xab;" d="M173 525q-16 25 0 51l209 344q8 13 22.5 19t32.5 6.5t38.5 -4t39.5 -13.5q20 -9 37.5 -21.5t29 -27t14.5 -29.5t-6 -30l-164 -269l164 -270q9 -15 6 -30t-14.5 -29.5t-29 -27t-37.5 -21.5q-19 -9 -39.5 -13.5t-38.5 -4t-32.5 6.5t-22.5 19zM613 525q-16 25 0 51l209 344 q8 13 22.5 19t32.5 6.5t38.5 -4t39.5 -13.5q20 -9 37.5 -21.5t29 -27t14.5 -29.5t-6 -30l-164 -269l164 -270q9 -15 6 -30t-14.5 -29.5t-29 -27t-37.5 -21.5q-19 -9 -39.5 -13.5t-38.5 -4t-32.5 6.5t-22.5 19z" />
<glyph unicode="&#xac;" d="M120 738q0 34 3.5 55t11 32.5t19.5 15.5t29 4h850q35 0 50 -15t15 -50v-432q0 -34 -30 -48.5t-102 -14.5q-36 0 -58.5 3.5t-36 11t-18.5 19.5t-5 29v282h-665q-17 0 -29 4t-19.5 16t-11 33t-3.5 55z" />
<glyph unicode="&#xad;" d="M170 582q0 36 3.5 58t11 34t19.5 16.5t29 4.5h762q17 0 29 -4.5t19.5 -16.5t11 -34t3.5 -58t-3.5 -58t-11 -34t-19.5 -16t-29 -4h-762q-17 0 -29 4t-19.5 16t-11 34t-3.5 58z" />
<glyph unicode="&#xae;" d="M28 594q0 131 43.5 243.5t121.5 195t185 129.5t235 47q127 0 234.5 -47t185.5 -129.5t121.5 -195t43.5 -243.5t-43.5 -244t-121.5 -195.5t-185.5 -129.5t-234.5 -47q-128 0 -235 47t-185 129.5t-121.5 195.5t-43.5 244zM181 594q0 -99 30.5 -183.5t87 -146.5t136 -97.5 t178.5 -35.5t178.5 35.5t136 97.5t87 146.5t30.5 183.5t-30.5 183.5t-87 146.5t-136 97t-178.5 35t-178.5 -35t-136 -97t-87 -146.5t-30.5 -183.5zM366 335v519q0 34 14.5 48.5t48.5 14.5h236q55 0 100 -19.5t76.5 -52.5t48.5 -77t17 -93q0 -68 -31 -118.5t-90 -78.5l77 -88 q23 -26 19.5 -49t-44.5 -51t-64.5 -27.5t-44.5 27.5l-119 153h-74v-108q0 -17 -3.5 -29.5t-12.5 -20.5t-25.5 -11.5t-43.5 -3.5t-43.5 3.5t-25.5 11.5t-12.5 20.5t-3.5 29.5zM536 598h99q45 0 69.5 20.5t24.5 56.5q0 34 -22.5 55.5t-62.5 21.5h-108v-154z" />
<glyph unicode="&#xaf;" d="M270 1172q0 32 3.5 52t11 31.5t19.5 15.5t29 4h562q17 0 29 -4t19.5 -15.5t11 -31.5t3.5 -52t-3.5 -52t-11 -31t-19.5 -15t-29 -4h-562q-17 0 -29 4t-19.5 15t-11 31t-3.5 52z" />
<glyph unicode="&#xb0;" d="M220 887q0 66 25.5 125t69 102.5t102.5 69t125 25.5t125 -25.5t102.5 -69t69 -102.5t25.5 -125t-25.5 -125t-69 -102.5t-102.5 -69t-125 -25.5t-125 25.5t-102.5 69t-69 102.5t-25.5 125zM431 887q0 -23 9 -43t24 -35t35 -24t43 -9t43 9t35 24t24 35t9 43t-9 43t-24 35 t-35 24t-43 9t-43 -9t-35 -24t-24 -35t-9 -43z" />
<glyph unicode="&#xb1;" d="M170 112q0 36 3.5 58t11 34t19.5 16.5t29 4.5h762q17 0 29 -4.5t19.5 -16.5t11 -34t3.5 -58t-3.5 -58t-11 -34t-19.5 -16t-29 -4h-762q-17 0 -29 4t-19.5 16t-11 34t-3.5 58zM170 732q0 36 3.5 58t11 34t19.5 16.5t29 4.5h268v218q0 17 4.5 29t16.5 19.5t34 11t58 3.5 t58 -3.5t34 -11t16 -19.5t4 -29v-218h269q17 0 29 -4.5t19.5 -16.5t11 -34t3.5 -58t-3.5 -58t-11 -34t-19.5 -16t-29 -4h-269v-219q0 -17 -4 -29t-16 -19.5t-34 -11t-58 -3.5t-58 3.5t-34 11t-16.5 19.5t-4.5 29v219h-268q-17 0 -29 4t-19.5 16t-11 34t-3.5 58z" />
<glyph unicode="&#xb2;" d="M279 583q0 30 7.5 48t20.5 28l327 253q54 40 81 73.5t27 72.5q0 48 -30.5 75.5t-86.5 27.5q-33 0 -68 -6.5t-64 -19.5v-88q0 -24 -17 -36t-69 -12q-53 0 -76 12t-23 36v173q0 28 31 45q66 35 146.5 52t155.5 17q74 0 130.5 -19.5t95 -55t58 -84.5t19.5 -108 q0 -41 -13.5 -77t-37.5 -69t-58.5 -64t-76.5 -61l-198 -143h238v46q0 12 3.5 21t13 15t26.5 9t43 3q53 0 76 -12t23 -36v-170q0 -25 -10.5 -35.5t-35.5 -10.5h-605q-24 0 -38.5 23.5t-14.5 76.5z" />
<glyph unicode="&#xb3;" d="M281.5 555.5q-6.5 25.5 8.5 67.5q15 41 34 58t38 9q51 -21 113 -36.5t119 -15.5q80 0 114 23t34 63q0 87 -107 87h-93q-23 0 -35.5 19t-12.5 67t12.5 67t35.5 19h74q124 0 124 91q0 41 -33.5 64t-99.5 23q-32 0 -66.5 -6.5t-69.5 -19.5v-58q0 -24 -17 -36t-69 -12 q-53 0 -76 12t-23 36v153q0 32 31 45q64 28 143.5 43.5t161.5 15.5q156 0 238 -66t82 -184q0 -65 -32.5 -107.5t-89.5 -69.5q63 -23 98.5 -71t35.5 -118q0 -127 -93 -190t-258 -63q-37 0 -76.5 4t-77 11t-72.5 17t-63 22q-26 11 -32.5 36.5z" />
<glyph unicode="&#xb4;" d="M390.5 1113.5q5.5 19.5 25.5 31.5l408 247q28 16 59 -3.5t61 -87.5q30 -69 26.5 -102.5t-29.5 -40.5l-480 -125q-24 -7 -42 4.5t-26 34.5q-8 22 -2.5 41.5z" />
<glyph unicode="&#xb6;" d="M101 809q0 89 30.5 159.5t86 119t132.5 74t169 25.5h556q17 0 29 -4t19.5 -15.5t11 -31.5t3.5 -52t-3.5 -52t-11 -31t-19.5 -15t-29 -4h-66v-1334q0 -34 -27.5 -48.5t-84.5 -14.5q-56 0 -77 14.5t-21 48.5v1334h-160v-1334q0 -34 -27.5 -48.5t-84.5 -14.5q-56 0 -77 14.5 t-21 48.5v792q-74 11 -134.5 41t-103.5 77.5t-66.5 110.5t-23.5 140z" />
<glyph unicode="&#xb7;" d="M406 586q0 43 16.5 81t44.5 66t66 44.5t81 16.5t81 -16.5t66 -44.5t44.5 -66t16.5 -81t-16.5 -81t-44.5 -66t-66 -44.5t-81 -16.5t-81 16.5t-66 44.5t-44.5 66t-16.5 81z" />
<glyph unicode="&#xb8;" d="M351.5 -401q-1.5 21 9.5 53q13 35 28.5 50.5t35.5 9.5q39 -15 76 -24.5t87 -9.5q86 0 86 53q0 21 -11 32.5t-28 17t-39.5 4.5t-44.5 -6q-17 -4 -29.5 5.5t-12.5 35.5v208h175v-121q58 2 101 -11t70.5 -38t41 -60.5t13.5 -78.5q0 -91 -70.5 -141t-208.5 -50 q-75 0 -140.5 11t-118.5 31q-19 8 -20.5 29z" />
<glyph unicode="&#xb9;" d="M291.5 1184q6.5 25 38.5 36l323 109q16 6 31 6t27 -6.5t19 -19.5t7 -34v-622h181q28 0 40 -20t12 -65t-12 -65t-40 -20h-564q-29 0 -40 20t-11 65t11.5 65t39.5 20h188v455l-157 -52q-27 -9 -48.5 2t-37.5 59q-14 42 -7.5 67z" />
<glyph unicode="&#xba;" d="M224 837q0 81 27.5 149t78.5 117.5t123 77.5t161 28t161 -28t123 -77.5t78.5 -117.5t27.5 -149t-27.5 -149t-78.5 -117.5t-123 -77.5t-161 -28t-161 28t-123 77.5t-78.5 117.5t-27.5 149zM430 837q0 -45 13 -81.5t37 -62t58 -39.5t76 -14q85 0 134.5 53t49.5 144 t-49.5 144.5t-134.5 53.5q-42 0 -76 -14t-58 -40t-37 -62.5t-13 -81.5z" />
<glyph unicode="&#xbb;" d="M192 251q-3 15 6 30l164 270l-164 269q-9 15 -6 30t14 29.5t29 27t38 21.5q19 9 39.5 13.5t38.5 4t32.5 -6.5t22.5 -19l209 -344q16 -26 0 -51l-209 -344q-8 -13 -22.5 -19t-32.5 -6.5t-38.5 4t-39.5 13.5q-20 9 -38 21.5t-29 27t-14 29.5zM632 251q-3 15 6 30l164 270 l-164 269q-9 15 -6 30t14 29.5t29 27t38 21.5q19 9 39.5 13.5t38.5 4t32.5 -6.5t22.5 -19l209 -344q16 -26 0 -51l-209 -344q-8 -13 -22.5 -19t-32.5 -6.5t-38.5 4t-39.5 13.5q-20 9 -38 21.5t-29 27t-14 29.5z" />
<glyph unicode="&#xbc;" d="M23.5 1221.5q5.5 20.5 31.5 29.5l270 91q13 5 25.5 5t22.5 -5.5t16 -16t6 -28.5v-518h151q23 0 33 -17t10 -54q0 -38 -10 -54.5t-33 -16.5h-471q-24 0 -33 16.5t-9 54.5q0 37 9.5 54t32.5 17h157v379l-131 -43q-22 -8 -40 1t-31 49q-12 36 -6.5 56.5zM89 279.5 q-2 12.5 1.5 23t14.5 16.5l937 521q17 9 38.5 -4t37.5 -36q17 -24 21 -50.5t-17 -38.5l-937 -521q-17 -9 -37 3.5t-36 33.5q-9 12 -15 26t-8 26.5zM557 134q0 15 3.5 25t10.5 20l315 384q14 17 35 26.5t58 9.5q47 0 69 -12.5t22 -34.5v-377h77q23 0 33 -17t10 -54 q0 -38 -10 -54.5t-33 -16.5h-77v-120q0 -20 -14.5 -30.5t-58.5 -10.5q-50 0 -71 10.5t-21 30.5v120h-294q-10 0 -20 9t-17.5 23.5t-12 33t-4.5 35.5zM753 175h152l5 202z" />
<glyph unicode="&#xbd;" d="M23.5 1221.5q5.5 20.5 31.5 29.5l270 91q13 5 25.5 5t22.5 -5.5t16 -16t6 -28.5v-518h151q23 0 33 -17t10 -54q0 -38 -10 -54.5t-33 -16.5h-471q-24 0 -33 16.5t-9 54.5q0 37 9.5 54t32.5 17h157v379l-131 -43q-22 -8 -40 1t-31 49q-12 36 -6.5 56.5zM89 329.5 q-2 12.5 1.5 23t14.5 16.5l937 521q17 9 38.5 -4t37.5 -36q17 -24 21 -50.5t-17 -38.5l-937 -521q-17 -9 -37 3.5t-36 33.5q-9 12 -15 26t-8 26.5zM589 -30q0 25 6 40t17 24l273 211q45 33 68 61t23 60q0 40 -25.5 63t-72.5 23q-28 0 -57 -5.5t-53 -15.5v-74 q0 -20 -14.5 -30t-57.5 -10q-44 0 -63.5 10t-19.5 30v144q0 24 26 38q55 29 122.5 43.5t129.5 14.5t109 -16.5t79.5 -46t48.5 -70.5t16 -90q0 -34 -11 -64t-31 -57.5t-49 -53.5t-64 -51l-165 -119h198v38q0 10 3 17.5t11 12.5t22 7.5t36 2.5q44 0 63.5 -10t19.5 -30v-142 q0 -21 -9 -29.5t-30 -8.5h-505q-20 0 -32 19.5t-12 63.5z" />
<glyph unicode="&#xbe;" d="M31 697.5q-5 21.5 7 56.5q13 34 28.5 48t31.5 7q43 -17 94.5 -30t99.5 -13q67 0 95.5 19t28.5 53q0 72 -90 72h-77q-20 0 -30 16t-10 56t10 56t30 16h61q104 0 104 76q0 34 -28 53t-83 19q-27 0 -55.5 -5.5t-58.5 -15.5v-49q0 -20 -14 -30t-58 -10t-63 10t-19 30v128 q0 26 26 37q53 24 119.5 37t134.5 13q131 0 199.5 -55.5t68.5 -153.5q0 -54 -27.5 -89.5t-74.5 -58.5q52 -19 82 -59t30 -98q0 -106 -78 -158.5t-215 -52.5q-31 0 -64 3t-64.5 9t-60.5 14.5t-53 18.5q-22 9 -27 30.5zM89 289.5q-2 12.5 1.5 23t14.5 16.5l937 521 q17 9 38.5 -4t37.5 -36q17 -24 21 -50.5t-17 -38.5l-937 -521q-17 -9 -37 3.5t-36 33.5q-9 12 -15 26t-8 26.5zM557 134q0 15 3.5 25t10.5 20l315 384q14 17 35 26.5t58 9.5q47 0 69 -12.5t22 -34.5v-377h77q23 0 33 -17t10 -54q0 -38 -10 -54.5t-33 -16.5h-77v-120 q0 -20 -14.5 -30.5t-58.5 -10.5q-50 0 -71 10.5t-21 30.5v120h-294q-10 0 -20 9t-17.5 23.5t-12 33t-4.5 35.5zM753 175h152l5 202z" />
<glyph unicode="&#xbf;" d="M227 313q0 69 19.5 120t57.5 89t95.5 65t134.5 47l9 86q1 12 6 21t16.5 15t30.5 9t48 3t48 -3t30.5 -9t16.5 -15t6 -21l18 -208q2 -20 -4.5 -34t-25.5 -17l-110 -18q-74 -12 -108 -41.5t-34 -83.5q0 -60 39 -91.5t117 -31.5q41 0 79.5 8t73.5 22v102q0 17 5 29t17 19.5 t33 11t53 3.5q64 0 93 -14.5t29 -48.5v-200q0 -41 -41 -61q-83 -39 -169.5 -63.5t-171.5 -24.5q-101 0 -177.5 23t-128.5 66.5t-78.5 105.5t-26.5 140zM473 1038q0 35 13.5 66t36.5 54.5t54 37t67 13.5t67 -13.5t54 -37t36.5 -54.5t13.5 -66q0 -36 -13.5 -67t-37 -54.5 t-54.5 -37t-66 -13.5q-36 0 -67 13.5t-54 37t-36.5 54.5t-13.5 67z" />
<glyph unicode="&#xc0;" d="M-10 103q0 32 3.5 52t11 31t19.5 15t29 4h84l253 777h-167q-17 0 -29 4t-19.5 15.5t-11 31.5t-3.5 52t3.5 52t11 31t19.5 15t29 4h474q40 0 65 -15t36 -50l290 -917h87q17 0 29 -4t19.5 -15t11 -31t3.5 -52t-3.5 -52t-11 -31.5t-19.5 -15.5t-29 -4h-424q-17 0 -29 4 t-19.5 15.5t-11 31.5t-3.5 52t3.5 52t11 31t19.5 15t29 4h86l-45 145h-364l-45 -145h74q17 0 29 -4t19.5 -15t11 -31t3.5 -52t-3.5 -52t-11 -31.5t-19.5 -15.5t-29 -4h-404q-17 0 -29 4t-19.5 15.5t-11 31.5t-3.5 52zM219.5 1468.5q-3.5 33.5 26.5 102.5q30 68 61 87.5 t59 3.5l408 -247q20 -12 25.5 -31.5t-2.5 -41.5q-8 -23 -26 -34.5t-42 -4.5l-480 125q-26 7 -29.5 40.5zM486 555h249l-120 427h-6z" />
<glyph unicode="&#xc1;" d="M-10 103q0 32 3.5 52t11 31t19.5 15t29 4h84l253 777h-167q-17 0 -29 4t-19.5 15.5t-11 31.5t-3.5 52t3.5 52t11 31t19.5 15t29 4h474q40 0 65 -15t36 -50l290 -917h87q17 0 29 -4t19.5 -15t11 -31t3.5 -52t-3.5 -52t-11 -31.5t-19.5 -15.5t-29 -4h-424q-17 0 -29 4 t-19.5 15.5t-11 31.5t-3.5 52t3.5 52t11 31t19.5 15t29 4h86l-45 145h-364l-45 -145h74q17 0 29 -4t19.5 -15t11 -31t3.5 -52t-3.5 -52t-11 -31.5t-19.5 -15.5t-29 -4h-404q-17 0 -29 4t-19.5 15.5t-11 31.5t-3.5 52zM328.5 1383.5q5.5 19.5 25.5 31.5l408 247 q28 16 59 -3.5t61 -87.5q30 -69 26.5 -102.5t-29.5 -40.5l-480 -125q-24 -7 -42 4.5t-26 34.5q-8 22 -2.5 41.5zM486 555h249l-120 427h-6z" />
<glyph unicode="&#xc2;" d="M-10 103q0 32 3.5 52t11 31t19.5 15t29 4h84l253 777h-167q-17 0 -29 4t-19.5 15.5t-11 31.5t-3.5 52t3.5 52t11 31t19.5 15t29 4h474q40 0 65 -15t36 -50l290 -917h87q17 0 29 -4t19.5 -15t11 -31t3.5 -52t-3.5 -52t-11 -31.5t-19.5 -15.5t-29 -4h-424q-17 0 -29 4 t-19.5 15.5t-11 31.5t-3.5 52t3.5 52t11 31t19.5 15t29 4h86l-45 145h-364l-45 -145h74q17 0 29 -4t19.5 -15t11 -31t3.5 -52t-3.5 -52t-11 -31.5t-19.5 -15.5t-29 -4h-404q-17 0 -29 4t-19.5 15.5t-11 31.5t-3.5 52zM234.5 1361.5q0.5 19.5 17.5 35.5l287 261q11 10 25 14 t30 4t30 -4t25 -14l287 -261q17 -16 17.5 -35.5t-13.5 -38.5q-14 -18 -31 -25.5t-36 1.5l-279 134l-279 -134q-19 -9 -36 -1.5t-31 25.5q-14 19 -13.5 38.5zM486 555h249l-120 427h-6z" />
<glyph unicode="&#xc3;" d="M-10 103q0 32 3.5 52t11 31t19.5 15t29 4h84l253 777h-167q-17 0 -29 4t-19.5 15.5t-11 31.5t-3.5 52t3.5 52t11 31t19.5 15t29 4h474q40 0 65 -15t36 -50l290 -917h87q17 0 29 -4t19.5 -15t11 -31t3.5 -52t-3.5 -52t-11 -31.5t-19.5 -15.5t-29 -4h-424q-17 0 -29 4 t-19.5 15.5t-11 31.5t-3.5 52t3.5 52t11 31t19.5 15t29 4h86l-45 145h-364l-45 -145h74q17 0 29 -4t19.5 -15t11 -31t3.5 -52t-3.5 -52t-11 -31.5t-19.5 -15.5t-29 -4h-404q-17 0 -29 4t-19.5 15.5t-11 31.5t-3.5 52zM206.5 1450q-1.5 25 17.5 41q60 52 110 72.5t95 20.5 q41 0 79 -11.5t74 -25.5t72 -25.5t73 -11.5q27 0 58.5 7t63.5 24q23 13 42.5 1.5t35.5 -38.5q14 -27 15 -52t-19 -41q-59 -51 -108.5 -72t-94.5 -21q-42 0 -80 11.5t-74 25.5t-71.5 25.5t-72.5 11.5q-29 0 -60.5 -7t-63.5 -24q-22 -12 -41.5 -1t-34.5 39q-14 26 -15.5 51z M486 555h249l-120 427h-6z" />
<glyph unicode="&#xc4;" d="M-10 103q0 32 3.5 52t11 31t19.5 15t29 4h84l253 777h-167q-17 0 -29 4t-19.5 15.5t-11 31.5t-3.5 52t3.5 52t11 31t19.5 15t29 4h474q40 0 65 -15t36 -50l290 -917h87q17 0 29 -4t19.5 -15t11 -31t3.5 -52t-3.5 -52t-11 -31.5t-19.5 -15.5t-29 -4h-424q-17 0 -29 4 t-19.5 15.5t-11 31.5t-3.5 52t3.5 52t11 31t19.5 15t29 4h86l-45 145h-364l-45 -145h74q17 0 29 -4t19.5 -15t11 -31t3.5 -52t-3.5 -52t-11 -31.5t-19.5 -15.5t-29 -4h-404q-17 0 -29 4t-19.5 15.5t-11 31.5t-3.5 52zM214 1465q0 31 12 58.5t32 47.5t47.5 32t58.5 12 t58.5 -12t47.5 -32t32 -47.5t12 -58.5t-12 -58.5t-32 -47.5t-47.5 -32t-58.5 -12t-58.5 12t-47.5 32t-32 47.5t-12 58.5zM486 555h249l-120 427h-6zM674 1465q0 31 12 58.5t32 47.5t47.5 32t58.5 12t58.5 -12t47.5 -32t32 -47.5t12 -58.5t-12 -58.5t-32 -47.5t-47.5 -32 t-58.5 -12t-58.5 12t-47.5 32t-32 47.5t-12 58.5z" />
<glyph unicode="&#xc5;" d="M-10 103q0 32 3.5 52t11 31t19.5 15t29 4h84l253 777h-167q-17 0 -29 4t-19.5 15.5t-11 31.5t-3.5 52t3.5 52t11 31t19.5 15t29 4h474q40 0 65 -15t36 -50l290 -917h87q17 0 29 -4t19.5 -15t11 -31t3.5 -52t-3.5 -52t-11 -31.5t-19.5 -15.5t-29 -4h-424q-17 0 -29 4 t-19.5 15.5t-11 31.5t-3.5 52t3.5 52t11 31t19.5 15t29 4h86l-45 145h-364l-45 -145h74q17 0 29 -4t19.5 -15t11 -31t3.5 -52t-3.5 -52t-11 -31.5t-19.5 -15.5t-29 -4h-404q-17 0 -29 4t-19.5 15.5t-11 31.5t-3.5 52zM335 1535q0 54 20.5 102t56 83.5t83.5 56t102 20.5 t102 -20.5t83.5 -56t56 -83.5t20.5 -102t-20.5 -102t-56 -83.5t-83.5 -56t-102 -20.5t-102 20.5t-83.5 56t-56 83.5t-20.5 102zM486 555h249l-120 427h-6zM494 1535q0 -21 8 -40t22 -33t33 -22t40 -8t40 8t33 22t22 33t8 40t-8 40t-22 33t-33 22t-40 8t-40 -8t-33 -22 t-22 -33t-8 -40z" />
<glyph unicode="&#xc6;" d="M-30 102q0 32 3.5 52t11 31.5t19.5 15.5t29 4h53l199 777h-102q-17 0 -29 4t-19.5 15t-11 31t-3.5 52t3.5 52t11 31.5t19.5 15.5t29 4h912q35 0 50 -15t15 -50v-272q0 -34 -26 -48.5t-86 -14.5q-30 0 -49 3.5t-30 11t-15 19.5t-4 29v132h-170v-253h114q17 0 29 -5 t19.5 -17t11 -33t3.5 -53t-3.5 -52.5t-11 -32.5t-19.5 -17t-29 -5h-114v-309h180v182q0 34 26 48.5t90 14.5q32 0 52 -3.5t31.5 -11t16 -19.5t4.5 -29v-322q0 -35 -15 -50t-50 -15h-500q-35 0 -50 15t-15 50v265h-202l-32 -125h41q17 0 29 -4t19.5 -15.5t11 -31.5t3.5 -52 t-3.5 -52t-11 -31t-19.5 -15t-29 -4h-324q-17 0 -29 4t-19.5 15t-11 31t-3.5 52zM400 545h150v437h-47z" />
<glyph unicode="&#xc7;" d="M103 594q0 142 39 256t109 194t165 122.5t208 42.5q94 0 157.5 -34t102.5 -92v63q0 34 29 48.5t93 14.5q32 0 53 -3.5t33 -11t17 -19.5t5 -29v-384q0 -34 -30 -48.5t-102 -14.5q-36 0 -58.5 3.5t-36 11t-18.5 19.5t-5 29q0 48 -13.5 88.5t-40 70t-65.5 45.5t-91 16 q-141 0 -212 -100.5t-71 -287.5t76 -288t217 -101q92 0 173 25.5t168 69.5q30 15 58 0t50 -75q22 -61 11 -93t-43 -48q-181 -90 -367 -104v-73q58 2 101 -11t70.5 -38t41 -60.5t13.5 -78.5q0 -91 -70.5 -141t-208.5 -50q-75 0 -140.5 11t-118.5 31q-19 8 -20.5 29t9.5 53 q13 35 28.5 50.5t35.5 9.5q39 -15 76 -24.5t87 -9.5q86 0 86 53q0 21 -11 32.5t-28 17t-39.5 4.5t-44.5 -6q-17 -4 -29.5 5.5t-12.5 35.5v169q-100 18 -180.5 68t-137.5 127.5t-87.5 181t-30.5 228.5z" />
<glyph unicode="&#xc8;" d="M60 102q0 32 3.5 52t11 31.5t19.5 15.5t29 4h97v777h-97q-17 0 -29 4t-19.5 15t-11 31t-3.5 52t3.5 52t11 31.5t19.5 15.5t29 4h912q35 0 50 -15t15 -50v-302q0 -34 -29 -48.5t-93 -14.5q-32 0 -53 3.5t-33 11t-17 19.5t-5 29v152h-400v-253h244q17 0 29 -5t19.5 -17 t11 -33t3.5 -53t-3.5 -52.5t-11 -32.5t-19.5 -17t-29 -5h-244v-289h410v202q0 34 29 48.5t97 14.5q34 0 56 -3.5t35 -11t18 -19.5t5 -29v-352q0 -35 -15 -50t-50 -15h-932q-17 0 -29 4t-19.5 15t-11 31t-3.5 52zM289.5 1468.5q-3.5 33.5 26.5 102.5q30 68 61 87.5t59 3.5 l408 -247q20 -12 25.5 -31.5t-2.5 -41.5q-8 -23 -26 -34.5t-42 -4.5l-480 125q-26 7 -29.5 40.5z" />
<glyph unicode="&#xc9;" d="M60 102q0 32 3.5 52t11 31.5t19.5 15.5t29 4h97v777h-97q-17 0 -29 4t-19.5 15t-11 31t-3.5 52t3.5 52t11 31.5t19.5 15.5t29 4h912q35 0 50 -15t15 -50v-302q0 -34 -29 -48.5t-93 -14.5q-32 0 -53 3.5t-33 11t-17 19.5t-5 29v152h-400v-253h244q17 0 29 -5t19.5 -17 t11 -33t3.5 -53t-3.5 -52.5t-11 -32.5t-19.5 -17t-29 -5h-244v-289h410v202q0 34 29 48.5t97 14.5q34 0 56 -3.5t35 -11t18 -19.5t5 -29v-352q0 -35 -15 -50t-50 -15h-932q-17 0 -29 4t-19.5 15t-11 31t-3.5 52zM358.5 1383.5q5.5 19.5 25.5 31.5l408 247q28 16 59 -3.5 t61 -87.5q30 -69 26.5 -102.5t-29.5 -40.5l-480 -125q-24 -7 -42 4.5t-26 34.5q-8 22 -2.5 41.5z" />
<glyph unicode="&#xca;" d="M60 102q0 32 3.5 52t11 31.5t19.5 15.5t29 4h97v777h-97q-17 0 -29 4t-19.5 15t-11 31t-3.5 52t3.5 52t11 31.5t19.5 15.5t29 4h912q35 0 50 -15t15 -50v-302q0 -34 -29 -48.5t-93 -14.5q-32 0 -53 3.5t-33 11t-17 19.5t-5 29v152h-400v-253h244q17 0 29 -5t19.5 -17 t11 -33t3.5 -53t-3.5 -52.5t-11 -32.5t-19.5 -17t-29 -5h-244v-289h410v202q0 34 29 48.5t97 14.5q34 0 56 -3.5t35 -11t18 -19.5t5 -29v-352q0 -35 -15 -50t-50 -15h-932q-17 0 -29 4t-19.5 15t-11 31t-3.5 52zM284.5 1361.5q0.5 19.5 17.5 35.5l287 261q11 10 25 14t30 4 t30 -4t25 -14l287 -261q17 -16 17.5 -35.5t-13.5 -38.5q-14 -18 -31 -25.5t-36 1.5l-279 134l-279 -134q-19 -9 -36 -1.5t-31 25.5q-14 19 -13.5 38.5z" />
<glyph unicode="&#xcb;" d="M60 102q0 32 3.5 52t11 31.5t19.5 15.5t29 4h97v777h-97q-17 0 -29 4t-19.5 15t-11 31t-3.5 52t3.5 52t11 31.5t19.5 15.5t29 4h912q35 0 50 -15t15 -50v-302q0 -34 -29 -48.5t-93 -14.5q-32 0 -53 3.5t-33 11t-17 19.5t-5 29v152h-400v-253h244q17 0 29 -5t19.5 -17 t11 -33t3.5 -53t-3.5 -52.5t-11 -32.5t-19.5 -17t-29 -5h-244v-289h410v202q0 34 29 48.5t97 14.5q34 0 56 -3.5t35 -11t18 -19.5t5 -29v-352q0 -35 -15 -50t-50 -15h-932q-17 0 -29 4t-19.5 15t-11 31t-3.5 52zM264 1465q0 31 12 58.5t32 47.5t47.5 32t58.5 12t58.5 -12 t47.5 -32t32 -47.5t12 -58.5t-12 -58.5t-32 -47.5t-47.5 -32t-58.5 -12t-58.5 12t-47.5 32t-32 47.5t-12 58.5zM724 1465q0 31 12 58.5t32 47.5t47.5 32t58.5 12t58.5 -12t47.5 -32t32 -47.5t12 -58.5t-12 -58.5t-32 -47.5t-47.5 -32t-58.5 -12t-58.5 12t-47.5 32t-32 47.5 t-12 58.5z" />
<glyph unicode="&#xcc;" d="M170 102q0 32 3.5 52t11 31.5t19.5 15.5t29 4h256v777h-236q-17 0 -29 4t-19.5 15t-11 31t-3.5 52t3.5 52t11 31.5t19.5 15.5t29 4h722q17 0 29 -4t19.5 -15.5t11 -31.5t3.5 -52t-3.5 -52t-11 -31t-19.5 -15t-29 -4h-236v-777h256q17 0 29 -4t19.5 -15.5t11 -31.5 t3.5 -52t-3.5 -52t-11 -31t-19.5 -15t-29 -4h-762q-17 0 -29 4t-19.5 15t-11 31t-3.5 52zM279.5 1468.5q-3.5 33.5 26.5 102.5q30 68 61 87.5t59 3.5l408 -247q20 -12 25.5 -31.5t-2.5 -41.5q-8 -23 -26 -34.5t-42 -4.5l-480 125q-26 7 -29.5 40.5z" />
<glyph unicode="&#xcd;" d="M170 102q0 32 3.5 52t11 31.5t19.5 15.5t29 4h256v777h-236q-17 0 -29 4t-19.5 15t-11 31t-3.5 52t3.5 52t11 31.5t19.5 15.5t29 4h722q17 0 29 -4t19.5 -15.5t11 -31.5t3.5 -52t-3.5 -52t-11 -31t-19.5 -15t-29 -4h-236v-777h256q17 0 29 -4t19.5 -15.5t11 -31.5 t3.5 -52t-3.5 -52t-11 -31t-19.5 -15t-29 -4h-762q-17 0 -29 4t-19.5 15t-11 31t-3.5 52zM388.5 1383.5q5.5 19.5 25.5 31.5l408 247q28 16 59 -3.5t61 -87.5q30 -69 26.5 -102.5t-29.5 -40.5l-480 -125q-24 -7 -42 4.5t-26 34.5q-8 22 -2.5 41.5z" />
<glyph unicode="&#xce;" d="M170 102q0 32 3.5 52t11 31.5t19.5 15.5t29 4h256v777h-236q-17 0 -29 4t-19.5 15t-11 31t-3.5 52t3.5 52t11 31.5t19.5 15.5t29 4h722q17 0 29 -4t19.5 -15.5t11 -31.5t3.5 -52t-3.5 -52t-11 -31t-19.5 -15t-29 -4h-236v-777h256q17 0 29 -4t19.5 -15.5t11 -31.5 t3.5 -52t-3.5 -52t-11 -31t-19.5 -15t-29 -4h-762q-17 0 -29 4t-19.5 15t-11 31t-3.5 52zM254.5 1361.5q0.5 19.5 17.5 35.5l287 261q11 10 25 14t30 4t30 -4t25 -14l287 -261q17 -16 17.5 -35.5t-13.5 -38.5q-14 -18 -31 -25.5t-36 1.5l-279 134l-279 -134q-19 -9 -36 -1.5 t-31 25.5q-14 19 -13.5 38.5z" />
<glyph unicode="&#xcf;" d="M170 102q0 32 3.5 52t11 31.5t19.5 15.5t29 4h256v777h-236q-17 0 -29 4t-19.5 15t-11 31t-3.5 52t3.5 52t11 31.5t19.5 15.5t29 4h722q17 0 29 -4t19.5 -15.5t11 -31.5t3.5 -52t-3.5 -52t-11 -31t-19.5 -15t-29 -4h-236v-777h256q17 0 29 -4t19.5 -15.5t11 -31.5 t3.5 -52t-3.5 -52t-11 -31t-19.5 -15t-29 -4h-762q-17 0 -29 4t-19.5 15t-11 31t-3.5 52zM234 1465q0 31 12 58.5t32 47.5t47.5 32t58.5 12t58.5 -12t47.5 -32t32 -47.5t12 -58.5t-12 -58.5t-32 -47.5t-47.5 -32t-58.5 -12t-58.5 12t-47.5 32t-32 47.5t-12 58.5zM694 1465 q0 31 12 58.5t32 47.5t47.5 32t58.5 12t58.5 -12t47.5 -32t32 -47.5t12 -58.5t-12 -58.5t-32 -47.5t-47.5 -32t-58.5 -12t-58.5 12t-47.5 32t-32 47.5t-12 58.5z" />
<glyph unicode="&#xd0;" d="M40 606q0 36 3.5 58t11 34t19.5 16.5t29 4.5h117v263h-97q-17 0 -29 4t-19.5 15t-11 31t-3.5 52t3.5 52t11 31.5t19.5 15.5t29 4h471q131 0 235 -39t176.5 -115t111 -186.5t38.5 -252.5q0 -143 -38.5 -253.5t-111 -186t-176.5 -115t-235 -39.5h-471q-17 0 -29 4t-19.5 15 t-11 31t-3.5 52t3.5 52t11 31.5t19.5 15.5t29 4h97v289h-117q-17 0 -29 4t-19.5 16t-11 34t-3.5 58zM470 215h104q156 0 234.5 96t78.5 283t-78.5 282.5t-234.5 95.5h-104v-253h135q17 0 29 -4.5t19.5 -16.5t11 -34t3.5 -58t-3.5 -58t-11 -34t-19.5 -16t-29 -4h-135v-279z " />
<glyph unicode="&#xd1;" d="M50 102q0 32 3.5 52t11 31.5t19.5 15.5t29 4h67v777h-67q-17 0 -29 4t-19.5 15t-11 31t-3.5 52t3.5 52t11 31.5t19.5 15.5t29 4h264q19 0 33 -6t23 -21l415 -687v509h-88q-17 0 -29 4t-19.5 15t-11 31t-3.5 52t3.5 52t11 31.5t19.5 15.5t29 4h375q17 0 29 -4t19.5 -15.5 t11 -31.5t3.5 -52t-3.5 -52t-11 -31t-19.5 -15t-29 -4h-57v-938q0 -32 -23.5 -49t-86.5 -17q-24 0 -41 3.5t-29.5 10t-21 16.5t-16.5 23l-450 745v-571h107q17 0 29 -4t19.5 -15.5t11 -31.5t3.5 -52t-3.5 -52t-11 -31t-19.5 -15t-29 -4h-404q-17 0 -29 4t-19.5 15t-11 31 t-3.5 52zM246.5 1450q-1.5 25 17.5 41q60 52 110 72.5t95 20.5q41 0 79 -11.5t74 -25.5t72 -25.5t73 -11.5q27 0 58.5 7t63.5 24q23 13 42.5 1.5t35.5 -38.5q14 -27 15 -52t-19 -41q-59 -51 -108.5 -72t-94.5 -21q-42 0 -80 11.5t-74 25.5t-71.5 25.5t-72.5 11.5 q-29 0 -60.5 -7t-63.5 -24q-22 -12 -41.5 -1t-34.5 39q-14 26 -15.5 51z" />
<glyph unicode="&#xd2;" d="M63 594q0 142 39.5 256t112 194t174 122.5t225.5 42.5t225.5 -42.5t174 -122.5t112 -194t39.5 -256q0 -143 -39.5 -257t-112 -193.5t-174 -122.5t-225.5 -43t-225.5 43t-174 122.5t-112 193.5t-39.5 257zM279.5 1468.5q-3.5 33.5 26.5 102.5q30 68 61 87.5t59 3.5 l408 -247q20 -12 25.5 -31.5t-2.5 -41.5q-8 -23 -26 -34.5t-42 -4.5l-480 125q-26 7 -29.5 40.5zM331 594q0 -187 71 -288t212 -101t212 101t71 288t-71 287.5t-212 100.5t-212 -100.5t-71 -287.5z" />
<glyph unicode="&#xd3;" d="M63 594q0 142 39.5 256t112 194t174 122.5t225.5 42.5t225.5 -42.5t174 -122.5t112 -194t39.5 -256q0 -143 -39.5 -257t-112 -193.5t-174 -122.5t-225.5 -43t-225.5 43t-174 122.5t-112 193.5t-39.5 257zM331 594q0 -187 71 -288t212 -101t212 101t71 288t-71 287.5 t-212 100.5t-212 -100.5t-71 -287.5zM368.5 1383.5q5.5 19.5 25.5 31.5l408 247q28 16 59 -3.5t61 -87.5q30 -69 26.5 -102.5t-29.5 -40.5l-480 -125q-24 -7 -42 4.5t-26 34.5q-8 22 -2.5 41.5z" />
<glyph unicode="&#xd4;" d="M63 594q0 142 39.5 256t112 194t174 122.5t225.5 42.5t225.5 -42.5t174 -122.5t112 -194t39.5 -256q0 -143 -39.5 -257t-112 -193.5t-174 -122.5t-225.5 -43t-225.5 43t-174 122.5t-112 193.5t-39.5 257zM254.5 1361.5q0.5 19.5 17.5 35.5l287 261q11 10 25 14t30 4 t30 -4t25 -14l287 -261q17 -16 17.5 -35.5t-13.5 -38.5q-14 -18 -31 -25.5t-36 1.5l-279 134l-279 -134q-19 -9 -36 -1.5t-31 25.5q-14 19 -13.5 38.5zM331 594q0 -187 71 -288t212 -101t212 101t71 288t-71 287.5t-212 100.5t-212 -100.5t-71 -287.5z" />
<glyph unicode="&#xd5;" d="M63 594q0 142 39.5 256t112 194t174 122.5t225.5 42.5t225.5 -42.5t174 -122.5t112 -194t39.5 -256q0 -143 -39.5 -257t-112 -193.5t-174 -122.5t-225.5 -43t-225.5 43t-174 122.5t-112 193.5t-39.5 257zM246.5 1450q-1.5 25 17.5 41q60 52 110 72.5t95 20.5 q41 0 79 -11.5t74 -25.5t72 -25.5t73 -11.5q27 0 58.5 7t63.5 24q23 13 42.5 1.5t35.5 -38.5q14 -27 15 -52t-19 -41q-59 -51 -108.5 -72t-94.5 -21q-42 0 -80 11.5t-74 25.5t-71.5 25.5t-72.5 11.5q-29 0 -60.5 -7t-63.5 -24q-22 -12 -41.5 -1t-34.5 39q-14 26 -15.5 51z M331 594q0 -187 71 -288t212 -101t212 101t71 288t-71 287.5t-212 100.5t-212 -100.5t-71 -287.5z" />
<glyph unicode="&#xd6;" d="M63 594q0 142 39.5 256t112 194t174 122.5t225.5 42.5t225.5 -42.5t174 -122.5t112 -194t39.5 -256q0 -143 -39.5 -257t-112 -193.5t-174 -122.5t-225.5 -43t-225.5 43t-174 122.5t-112 193.5t-39.5 257zM234 1465q0 31 12 58.5t32 47.5t47.5 32t58.5 12t58.5 -12 t47.5 -32t32 -47.5t12 -58.5t-12 -58.5t-32 -47.5t-47.5 -32t-58.5 -12t-58.5 12t-47.5 32t-32 47.5t-12 58.5zM331 594q0 -187 71 -288t212 -101t212 101t71 288t-71 287.5t-212 100.5t-212 -100.5t-71 -287.5zM694 1465q0 31 12 58.5t32 47.5t47.5 32t58.5 12t58.5 -12 t47.5 -32t32 -47.5t12 -58.5t-12 -58.5t-32 -47.5t-47.5 -32t-58.5 -12t-58.5 12t-47.5 32t-32 47.5t-12 58.5z" />
<glyph unicode="&#xd7;" d="M215.5 313.5q-3.5 14.5 2 25.5t17.5 23l220 220l-220 220q-12 12 -17 23.5t-2 25.5t16 32t38 43t43 38t32.5 16.5t25.5 -2t23 -17.5l220 -220l220 220q12 12 23 17.5t25.5 2t32.5 -16.5t43 -38t38 -43t16 -32t-2 -25.5t-17 -23.5l-220 -220l220 -220q12 -12 17.5 -23 t2 -25.5t-16.5 -32.5t-38 -43t-43 -38t-32 -16t-25.5 2t-23.5 17l-220 220l-220 -220q-12 -12 -23.5 -17t-25.5 -2t-32 16t-43 38t-38 43t-16.5 32.5z" />
<glyph unicode="&#xd8;" d="M63 594q0 142 39.5 256t112 194t174 122.5t225.5 42.5q77 0 145 -16.5t127 -48.5l25 36q10 14 20 21.5t22.5 7.5t29.5 -7.5t40 -23.5q46 -32 53 -54.5t-13 -50.5l-34 -48q66 -80 101 -188t35 -243q0 -143 -39.5 -257t-112 -193.5t-174 -122.5t-225.5 -43q-152 0 -271 64 l-25 -35q-10 -14 -20 -21.5t-23 -7.5t-29.5 7.5t-39.5 23.5t-36 29.5t-17.5 25.5t-1 24t13.5 26l33 48q-65 79 -100 187.5t-35 244.5zM331 594q0 -119 28 -202l391 557q-57 33 -136 33q-141 0 -212 -100.5t-71 -287.5zM479 237q58 -32 135 -32q141 0 212 101t71 288 q0 116 -29 201z" />
<glyph unicode="&#xd9;" d="M50 1084q0 32 3.5 52t11 31.5t19.5 15.5t29 4h374q17 0 29 -4t19.5 -15.5t11 -31.5t3.5 -52t-3.5 -52t-11 -31t-19.5 -15t-29 -4h-77v-549q0 -60 15 -103t42 -71t64.5 -41t82.5 -13t82.5 13t64.5 41t42 71t15 103v549h-77q-17 0 -29 4t-19.5 15t-11 31t-3.5 52t3.5 52 t11 31.5t19.5 15.5t29 4h374q17 0 29 -4t19.5 -15.5t11 -31.5t3.5 -52t-3.5 -52t-11 -31t-19.5 -15t-29 -4h-47v-569q0 -105 -31.5 -186t-90.5 -136.5t-143 -84t-189 -28.5t-189 28.5t-143 84t-90.5 136.5t-31.5 186v569h-47q-17 0 -29 4t-19.5 15t-11 31t-3.5 52z M279.5 1468.5q-3.5 33.5 26.5 102.5q30 68 61 87.5t59 3.5l408 -247q20 -12 25.5 -31.5t-2.5 -41.5q-8 -23 -26 -34.5t-42 -4.5l-480 125q-26 7 -29.5 40.5z" />
<glyph unicode="&#xda;" d="M50 1084q0 32 3.5 52t11 31.5t19.5 15.5t29 4h374q17 0 29 -4t19.5 -15.5t11 -31.5t3.5 -52t-3.5 -52t-11 -31t-19.5 -15t-29 -4h-77v-549q0 -60 15 -103t42 -71t64.5 -41t82.5 -13t82.5 13t64.5 41t42 71t15 103v549h-77q-17 0 -29 4t-19.5 15t-11 31t-3.5 52t3.5 52 t11 31.5t19.5 15.5t29 4h374q17 0 29 -4t19.5 -15.5t11 -31.5t3.5 -52t-3.5 -52t-11 -31t-19.5 -15t-29 -4h-47v-569q0 -105 -31.5 -186t-90.5 -136.5t-143 -84t-189 -28.5t-189 28.5t-143 84t-90.5 136.5t-31.5 186v569h-47q-17 0 -29 4t-19.5 15t-11 31t-3.5 52z M388.5 1383.5q5.5 19.5 25.5 31.5l408 247q28 16 59 -3.5t61 -87.5q30 -69 26.5 -102.5t-29.5 -40.5l-480 -125q-24 -7 -42 4.5t-26 34.5q-8 22 -2.5 41.5z" />
<glyph unicode="&#xdb;" d="M50 1084q0 32 3.5 52t11 31.5t19.5 15.5t29 4h374q17 0 29 -4t19.5 -15.5t11 -31.5t3.5 -52t-3.5 -52t-11 -31t-19.5 -15t-29 -4h-77v-549q0 -60 15 -103t42 -71t64.5 -41t82.5 -13t82.5 13t64.5 41t42 71t15 103v549h-77q-17 0 -29 4t-19.5 15t-11 31t-3.5 52t3.5 52 t11 31.5t19.5 15.5t29 4h374q17 0 29 -4t19.5 -15.5t11 -31.5t3.5 -52t-3.5 -52t-11 -31t-19.5 -15t-29 -4h-47v-569q0 -105 -31.5 -186t-90.5 -136.5t-143 -84t-189 -28.5t-189 28.5t-143 84t-90.5 136.5t-31.5 186v569h-47q-17 0 -29 4t-19.5 15t-11 31t-3.5 52z M254.5 1361.5q0.5 19.5 17.5 35.5l287 261q11 10 25 14t30 4t30 -4t25 -14l287 -261q17 -16 17.5 -35.5t-13.5 -38.5q-14 -18 -31 -25.5t-36 1.5l-279 134l-279 -134q-19 -9 -36 -1.5t-31 25.5q-14 19 -13.5 38.5z" />
<glyph unicode="&#xdc;" d="M50 1084q0 32 3.5 52t11 31.5t19.5 15.5t29 4h374q17 0 29 -4t19.5 -15.5t11 -31.5t3.5 -52t-3.5 -52t-11 -31t-19.5 -15t-29 -4h-77v-549q0 -60 15 -103t42 -71t64.5 -41t82.5 -13t82.5 13t64.5 41t42 71t15 103v549h-77q-17 0 -29 4t-19.5 15t-11 31t-3.5 52t3.5 52 t11 31.5t19.5 15.5t29 4h374q17 0 29 -4t19.5 -15.5t11 -31.5t3.5 -52t-3.5 -52t-11 -31t-19.5 -15t-29 -4h-47v-569q0 -105 -31.5 -186t-90.5 -136.5t-143 -84t-189 -28.5t-189 28.5t-143 84t-90.5 136.5t-31.5 186v569h-47q-17 0 -29 4t-19.5 15t-11 31t-3.5 52zM234 1465 q0 31 12 58.5t32 47.5t47.5 32t58.5 12t58.5 -12t47.5 -32t32 -47.5t12 -58.5t-12 -58.5t-32 -47.5t-47.5 -32t-58.5 -12t-58.5 12t-47.5 32t-32 47.5t-12 58.5zM694 1465q0 31 12 58.5t32 47.5t47.5 32t58.5 12t58.5 -12t47.5 -32t32 -47.5t12 -58.5t-12 -58.5t-32 -47.5 t-47.5 -32t-58.5 -12t-58.5 12t-47.5 32t-32 47.5t-12 58.5z" />
<glyph unicode="&#xdd;" d="M40 1084q0 32 3.5 52t11 31.5t19.5 15.5t29 4h394q17 0 29 -4t19.5 -15.5t11 -31.5t3.5 -52t-3.5 -52t-11 -31t-19.5 -15t-29 -4h-67l186 -292l188 292h-53q-17 0 -29 4t-19.5 15t-11 31t-3.5 52t3.5 52t11 31.5t19.5 15.5t29 4h374q17 0 29 -4t19.5 -15.5t11 -31.5 t3.5 -52t-3.5 -52t-11 -31t-19.5 -15t-29 -4h-44l-342 -523v-254h196q17 0 29 -4t19.5 -15.5t11 -31.5t3.5 -52t-3.5 -52t-11 -31t-19.5 -15t-29 -4h-642q-17 0 -29 4t-19.5 15t-11 31t-3.5 52t3.5 52t11 31.5t19.5 15.5t29 4h196v255l-340 522h-46q-17 0 -29 4t-19.5 15 t-11 31t-3.5 52zM388.5 1383.5q5.5 19.5 25.5 31.5l408 247q28 16 59 -3.5t61 -87.5q30 -69 26.5 -102.5t-29.5 -40.5l-480 -125q-24 -7 -42 4.5t-26 34.5q-8 22 -2.5 41.5z" />
<glyph unicode="&#xde;" d="M120 102q0 32 3.5 52t11 31.5t19.5 15.5t29 4h147v777h-147q-17 0 -29 4t-19.5 15t-11 31t-3.5 52t3.5 52t11 31.5t19.5 15.5t29 4h584q17 0 29 -4t19.5 -15.5t11 -31.5t3.5 -52t-3.5 -52t-11 -31t-19.5 -15t-29 -4h-187v-86h140q94 0 163 -21t114.5 -60t67.5 -95 t22 -126t-22 -126t-67.5 -95.5t-114.5 -60.5t-163 -21h-140v-86h187q17 0 29 -4t19.5 -15.5t11 -31.5t3.5 -52t-3.5 -52t-11 -31t-19.5 -15t-29 -4h-584q-17 0 -29 4t-19.5 15t-11 31t-3.5 52zM580 496h109q73 0 106.5 23t33.5 75t-33.5 74.5t-106.5 22.5h-109v-195z" />
<glyph unicode="&#xdf;" d="M22 102q0 32 3.5 52t11 31.5t19.5 15.5t29 4h123v672q0 100 27.5 181.5t80.5 139t130.5 88.5t176.5 31t175 -27.5t128 -76.5t78.5 -117.5t26.5 -149.5q0 -95 -38.5 -160t-117.5 -108q103 -38 159 -117t56 -194q0 -98 -32 -170.5t-89.5 -121.5t-139 -73t-180.5 -24 q-38 0 -57.5 24.5t-19.5 88.5t11.5 89t45.5 25q193 0 193 182q0 78 -47.5 120t-132.5 42q-34 0 -48.5 24t-14.5 88q0 32 3.5 53t11 34t19.5 18.5t29 7.5q141 14 141 162q0 33 -9 61t-28.5 48.5t-49 32.5t-71.5 12q-81 0 -124 -55t-43 -161v-811q0 -34 -14.5 -48.5 t-48.5 -14.5h-310q-17 0 -29 4t-19.5 15t-11 31t-3.5 52z" />
<glyph unicode="&#xe0;" d="M120 295q0 70 25.5 125t74 92.5t118 57t158.5 19.5q133 0 283 -30v29q0 31 -10 55.5t-32.5 41.5t-60 25.5t-91.5 8.5q-60 0 -131 -15t-140 -38q-16 -5 -30 -5.5t-27 7t-25 25t-23 47.5q-22 60 -15 92t42 45q47 17 96.5 30t98 21.5t95 13t87.5 4.5q114 0 193.5 -25.5 t129 -73.5t71.5 -116t22 -152v-289q0 -40 17 -62.5t49 -22.5h31q17 0 29 -4t19.5 -15.5t11 -31.5t3.5 -52t-3.5 -52t-11 -31t-19.5 -15t-29 -4h-112q-60 0 -108 24.5t-74 81.5q-77 -60 -164.5 -94t-183.5 -34q-86 0 -153.5 22t-114.5 63.5t-71.5 100t-24.5 131.5z M319.5 1198.5q-3.5 33.5 26.5 102.5q30 68 61 87.5t59 3.5l408 -247q20 -12 25.5 -31.5t-2.5 -41.5q-8 -23 -26 -34.5t-42 -4.5l-480 125q-26 7 -29.5 40.5zM378 285q0 -48 35.5 -72t102.5 -24q72 0 139 28.5t124 74.5v64q-70 14 -133.5 20.5t-124.5 6.5q-71 0 -107 -25 t-36 -73z" />
<glyph unicode="&#xe1;" d="M120 295q0 70 25.5 125t74 92.5t118 57t158.5 19.5q133 0 283 -30v29q0 31 -10 55.5t-32.5 41.5t-60 25.5t-91.5 8.5q-60 0 -131 -15t-140 -38q-16 -5 -30 -5.5t-27 7t-25 25t-23 47.5q-22 60 -15 92t42 45q47 17 96.5 30t98 21.5t95 13t87.5 4.5q114 0 193.5 -25.5 t129 -73.5t71.5 -116t22 -152v-289q0 -40 17 -62.5t49 -22.5h31q17 0 29 -4t19.5 -15.5t11 -31.5t3.5 -52t-3.5 -52t-11 -31t-19.5 -15t-29 -4h-112q-60 0 -108 24.5t-74 81.5q-77 -60 -164.5 -94t-183.5 -34q-86 0 -153.5 22t-114.5 63.5t-71.5 100t-24.5 131.5z M328.5 1113.5q5.5 19.5 25.5 31.5l408 247q28 16 59 -3.5t61 -87.5q30 -69 26.5 -102.5t-29.5 -40.5l-480 -125q-24 -7 -42 4.5t-26 34.5q-8 22 -2.5 41.5zM378 285q0 -48 35.5 -72t102.5 -24q72 0 139 28.5t124 74.5v64q-70 14 -133.5 20.5t-124.5 6.5q-71 0 -107 -25 t-36 -73z" />
<glyph unicode="&#xe2;" d="M120 295q0 70 25.5 125t74 92.5t118 57t158.5 19.5q133 0 283 -30v29q0 31 -10 55.5t-32.5 41.5t-60 25.5t-91.5 8.5q-60 0 -131 -15t-140 -38q-16 -5 -30 -5.5t-27 7t-25 25t-23 47.5q-22 60 -15 92t42 45q47 17 96.5 30t98 21.5t95 13t87.5 4.5q114 0 193.5 -25.5 t129 -73.5t71.5 -116t22 -152v-289q0 -40 17 -62.5t49 -22.5h31q17 0 29 -4t19.5 -15.5t11 -31.5t3.5 -52t-3.5 -52t-11 -31t-19.5 -15t-29 -4h-112q-60 0 -108 24.5t-74 81.5q-77 -60 -164.5 -94t-183.5 -34q-86 0 -153.5 22t-114.5 63.5t-71.5 100t-24.5 131.5z M254.5 1091.5q0.5 19.5 17.5 35.5l287 261q11 10 25 14t30 4t30 -4t25 -14l287 -261q17 -16 17.5 -35.5t-13.5 -38.5q-14 -18 -31 -25.5t-36 1.5l-279 134l-279 -134q-19 -9 -36 -1.5t-31 25.5q-14 19 -13.5 38.5zM378 285q0 -48 35.5 -72t102.5 -24q72 0 139 28.5t124 74.5 v64q-70 14 -133.5 20.5t-124.5 6.5q-71 0 -107 -25t-36 -73z" />
<glyph unicode="&#xe3;" d="M120 295q0 70 25.5 125t74 92.5t118 57t158.5 19.5q133 0 283 -30v29q0 31 -10 55.5t-32.5 41.5t-60 25.5t-91.5 8.5q-60 0 -131 -15t-140 -38q-16 -5 -30 -5.5t-27 7t-25 25t-23 47.5q-22 60 -15 92t42 45q47 17 96.5 30t98 21.5t95 13t87.5 4.5q114 0 193.5 -25.5 t129 -73.5t71.5 -116t22 -152v-289q0 -40 17 -62.5t49 -22.5h31q17 0 29 -4t19.5 -15.5t11 -31.5t3.5 -52t-3.5 -52t-11 -31t-19.5 -15t-29 -4h-112q-60 0 -108 24.5t-74 81.5q-77 -60 -164.5 -94t-183.5 -34q-86 0 -153.5 22t-114.5 63.5t-71.5 100t-24.5 131.5z M246.5 1190q-1.5 25 17.5 41q60 52 110 72.5t95 20.5q41 0 79 -11.5t74 -25.5t72 -25.5t73 -11.5q27 0 58.5 7t63.5 24q23 13 42.5 1.5t35.5 -38.5q14 -27 15 -52t-19 -41q-59 -51 -108.5 -72t-94.5 -21q-42 0 -80 11.5t-74 25.5t-71.5 25.5t-72.5 11.5q-29 0 -60.5 -7 t-63.5 -24q-22 -12 -41.5 -1t-34.5 39q-14 26 -15.5 51zM378 285q0 -48 35.5 -72t102.5 -24q72 0 139 28.5t124 74.5v64q-70 14 -133.5 20.5t-124.5 6.5q-71 0 -107 -25t-36 -73z" />
<glyph unicode="&#xe4;" d="M120 295q0 70 25.5 125t74 92.5t118 57t158.5 19.5q133 0 283 -30v29q0 31 -10 55.5t-32.5 41.5t-60 25.5t-91.5 8.5q-60 0 -131 -15t-140 -38q-16 -5 -30 -5.5t-27 7t-25 25t-23 47.5q-22 60 -15 92t42 45q47 17 96.5 30t98 21.5t95 13t87.5 4.5q114 0 193.5 -25.5 t129 -73.5t71.5 -116t22 -152v-289q0 -40 17 -62.5t49 -22.5h31q17 0 29 -4t19.5 -15.5t11 -31.5t3.5 -52t-3.5 -52t-11 -31t-19.5 -15t-29 -4h-112q-60 0 -108 24.5t-74 81.5q-77 -60 -164.5 -94t-183.5 -34q-86 0 -153.5 22t-114.5 63.5t-71.5 100t-24.5 131.5zM234 1195 q0 31 12 58.5t32 47.5t47.5 32t58.5 12t58.5 -12t47.5 -32t32 -47.5t12 -58.5t-12 -58.5t-32 -47.5t-47.5 -32t-58.5 -12t-58.5 12t-47.5 32t-32 47.5t-12 58.5zM378 285q0 -48 35.5 -72t102.5 -24q72 0 139 28.5t124 74.5v64q-70 14 -133.5 20.5t-124.5 6.5q-71 0 -107 -25 t-36 -73zM694 1195q0 31 12 58.5t32 47.5t47.5 32t58.5 12t58.5 -12t47.5 -32t32 -47.5t12 -58.5t-12 -58.5t-32 -47.5t-47.5 -32t-58.5 -12t-58.5 12t-47.5 32t-32 47.5t-12 58.5z" />
<glyph unicode="&#xe5;" d="M120 295q0 70 25.5 125t74 92.5t118 57t158.5 19.5q133 0 283 -30v29q0 31 -10 55.5t-32.5 41.5t-60 25.5t-91.5 8.5q-60 0 -131 -15t-140 -38q-16 -5 -30 -5.5t-27 7t-25 25t-23 47.5q-22 60 -15 92t42 45q47 17 96.5 30t98 21.5t95 13t87.5 4.5q114 0 193.5 -25.5 t129 -73.5t71.5 -116t22 -152v-289q0 -40 17 -62.5t49 -22.5h31q17 0 29 -4t19.5 -15.5t11 -31.5t3.5 -52t-3.5 -52t-11 -31t-19.5 -15t-29 -4h-112q-60 0 -108 24.5t-74 81.5q-77 -60 -164.5 -94t-183.5 -34q-86 0 -153.5 22t-114.5 63.5t-71.5 100t-24.5 131.5zM362 1306 q0 54 20.5 102t56 83.5t83.5 56t102 20.5t102 -20.5t83.5 -56t56 -83.5t20.5 -102t-20.5 -102t-56 -83.5t-83.5 -56t-102 -20.5t-102 20.5t-83.5 56t-56 83.5t-20.5 102zM378 285q0 -48 35.5 -72t102.5 -24q72 0 139 28.5t124 74.5v64q-70 14 -133.5 20.5t-124.5 6.5 q-71 0 -107 -25t-36 -73zM521 1306q0 -21 8 -40t22 -33t33 -22t40 -8t40 8t33 22t22 33t8 40t-8 40t-22 33t-33 22t-40 8t-40 -8t-33 -22t-22 -33t-8 -40z" />
<glyph unicode="&#xe6;" d="M32 275q0 87 31.5 146.5t85 96t123 53t145.5 16.5q23 0 46 -1.5t46 -3.5v6q0 63 -35 97t-109 34q-47 0 -90 -15t-86 -37q-31 -16 -58.5 0.5t-52.5 70.5q-21 46 -17.5 78.5t35.5 51.5q66 38 142 58t155 20q85 0 144 -24.5t97 -69.5q40 45 95.5 69.5t128.5 24.5 q102 0 167 -38.5t102.5 -107t51.5 -163t14 -205.5q0 -34 -14.5 -48t-48.5 -14h-406q11 -81 44 -123t90 -42q28 0 54 3t52.5 9t53.5 15.5t58 22.5q19 8 34 6t27 -12.5t21.5 -28.5t17.5 -41q19 -54 12 -84t-43 -46q-68 -29 -144.5 -50t-157.5 -21q-83 0 -142 32.5t-98 91.5 q-48 -63 -115.5 -93.5t-152.5 -30.5q-68 0 -124 20t-95.5 58.5t-61.5 93.5t-22 125zM260 285q0 -45 24 -70.5t74 -25.5q36 0 64 13t47.5 35.5t29.5 53.5t10 67v32q-54 3 -99.5 1.5t-78.5 -12t-52 -33t-19 -61.5zM724 565h244q-5 72 -32 113t-78 41q-61 0 -92 -38t-42 -116z " />
<glyph unicode="&#xe7;" d="M127 462q0 107 36.5 196t101 153t151.5 99.5t188 35.5q81 0 137.5 -28.5t91.5 -88.5v54q0 34 29 48.5t93 14.5q32 0 53 -3.5t33 -11t17 -19.5t5 -29v-321q0 -34 -30 -48.5t-102 -14.5q-36 0 -58.5 3.5t-36 11t-18.5 19.5t-5 29q0 31 -11 59t-33.5 50t-56 35t-78.5 13 q-54 0 -98.5 -18t-75.5 -52t-48 -81.5t-17 -105.5q0 -59 17 -106t48 -81t75.5 -52t98.5 -18q80 0 160 25.5t154 68.5q29 17 58 3.5t54 -72.5t15.5 -92t-40.5 -50q-79 -44 -168 -72.5t-183 -35.5v-73q58 2 101 -11t70.5 -38t41 -60.5t13.5 -78.5q0 -91 -70.5 -141t-208.5 -50 q-75 0 -140.5 11t-118.5 31q-19 8 -20.5 29t9.5 53q13 35 28.5 50.5t35.5 9.5q39 -15 76 -24.5t87 -9.5q86 0 86 53q0 21 -11 32.5t-28 17t-39.5 4.5t-44.5 -6q-17 -4 -29.5 5.5t-12.5 35.5v171q-89 18 -159.5 60t-120 103.5t-76 139.5t-26.5 168z" />
<glyph unicode="&#xe8;" d="M117 462q0 105 34 193.5t98.5 153t156.5 101t208 36.5q117 0 206 -38.5t148.5 -107t90 -163t30.5 -205.5q0 -34 -14.5 -48t-48.5 -14h-642q20 -81 76 -123t144 -42q81 0 168.5 12.5t187.5 42.5q32 10 53 -6.5t38 -77.5q8 -31 10 -52.5t-3 -36t-16.5 -23.5t-29.5 -15 q-100 -33 -210 -52t-218 -19q-112 0 -199 36t-146.5 100.5t-90.5 153.5t-31 194zM309.5 1198.5q-3.5 33.5 26.5 102.5q30 68 61 87.5t59 3.5l408 -247q20 -12 25.5 -31.5t-2.5 -41.5q-8 -23 -26 -34.5t-42 -4.5l-480 125q-26 7 -29.5 40.5zM388 565h440q-17 72 -72 113 t-142 41q-91 0 -147.5 -38t-78.5 -116z" />
<glyph unicode="&#xe9;" d="M117 462q0 105 34 193.5t98.5 153t156.5 101t208 36.5q117 0 206 -38.5t148.5 -107t90 -163t30.5 -205.5q0 -34 -14.5 -48t-48.5 -14h-642q20 -81 76 -123t144 -42q81 0 168.5 12.5t187.5 42.5q32 10 53 -6.5t38 -77.5q8 -31 10 -52.5t-3 -36t-16.5 -23.5t-29.5 -15 q-100 -33 -210 -52t-218 -19q-112 0 -199 36t-146.5 100.5t-90.5 153.5t-31 194zM358.5 1113.5q5.5 19.5 25.5 31.5l408 247q28 16 59 -3.5t61 -87.5q30 -69 26.5 -102.5t-29.5 -40.5l-480 -125q-24 -7 -42 4.5t-26 34.5q-8 22 -2.5 41.5zM388 565h440q-17 72 -72 113 t-142 41q-91 0 -147.5 -38t-78.5 -116z" />
<glyph unicode="&#xea;" d="M117 462q0 105 34 193.5t98.5 153t156.5 101t208 36.5q117 0 206 -38.5t148.5 -107t90 -163t30.5 -205.5q0 -34 -14.5 -48t-48.5 -14h-642q20 -81 76 -123t144 -42q81 0 168.5 12.5t187.5 42.5q32 10 53 -6.5t38 -77.5q8 -31 10 -52.5t-3 -36t-16.5 -23.5t-29.5 -15 q-100 -33 -210 -52t-218 -19q-112 0 -199 36t-146.5 100.5t-90.5 153.5t-31 194zM264.5 1091.5q0.5 19.5 17.5 35.5l287 261q11 10 25 14t30 4t30 -4t25 -14l287 -261q17 -16 17.5 -35.5t-13.5 -38.5q-14 -18 -31 -25.5t-36 1.5l-279 134l-279 -134q-19 -9 -36 -1.5 t-31 25.5q-14 19 -13.5 38.5zM388 565h440q-17 72 -72 113t-142 41q-91 0 -147.5 -38t-78.5 -116z" />
<glyph unicode="&#xeb;" d="M117 462q0 105 34 193.5t98.5 153t156.5 101t208 36.5q117 0 206 -38.5t148.5 -107t90 -163t30.5 -205.5q0 -34 -14.5 -48t-48.5 -14h-642q20 -81 76 -123t144 -42q81 0 168.5 12.5t187.5 42.5q32 10 53 -6.5t38 -77.5q8 -31 10 -52.5t-3 -36t-16.5 -23.5t-29.5 -15 q-100 -33 -210 -52t-218 -19q-112 0 -199 36t-146.5 100.5t-90.5 153.5t-31 194zM234 1195q0 31 12 58.5t32 47.5t47.5 32t58.5 12t58.5 -12t47.5 -32t32 -47.5t12 -58.5t-12 -58.5t-32 -47.5t-47.5 -32t-58.5 -12t-58.5 12t-47.5 32t-32 47.5t-12 58.5zM388 565h440 q-17 72 -72 113t-142 41q-91 0 -147.5 -38t-78.5 -116zM694 1195q0 31 12 58.5t32 47.5t47.5 32t58.5 12t58.5 -12t47.5 -32t32 -47.5t12 -58.5t-12 -58.5t-32 -47.5t-47.5 -32t-58.5 -12t-58.5 12t-47.5 32t-32 47.5t-12 58.5z" />
<glyph unicode="&#xec;" d="M167 102q0 32 3.5 52t11 31.5t19.5 15.5t29 4h273v514h-193q-17 0 -29 4t-19.5 15t-11 31t-3.5 52t3.5 52t11 31.5t19.5 15.5t29 4h380q34 0 48.5 -14.5t14.5 -48.5v-656h281q17 0 29 -4t19.5 -15.5t11 -31.5t3.5 -52t-3.5 -52t-11 -31t-19.5 -15t-29 -4h-804 q-17 0 -29 4t-19.5 15t-11 31t-3.5 52zM219.5 1198.5q-3.5 33.5 26.5 102.5q30 68 61 87.5t59 3.5l408 -247q20 -12 25.5 -31.5t-2.5 -41.5q-8 -23 -26 -34.5t-42 -4.5l-480 125q-26 7 -29.5 40.5z" />
<glyph unicode="&#xed;" d="M167 102q0 32 3.5 52t11 31.5t19.5 15.5t29 4h273v514h-193q-17 0 -29 4t-19.5 15t-11 31t-3.5 52t3.5 52t11 31.5t19.5 15.5t29 4h380q34 0 48.5 -14.5t14.5 -48.5v-656h281q17 0 29 -4t19.5 -15.5t11 -31.5t3.5 -52t-3.5 -52t-11 -31t-19.5 -15t-29 -4h-804 q-17 0 -29 4t-19.5 15t-11 31t-3.5 52zM328.5 1113.5q5.5 19.5 25.5 31.5l408 247q28 16 59 -3.5t61 -87.5q30 -69 26.5 -102.5t-29.5 -40.5l-480 -125q-24 -7 -42 4.5t-26 34.5q-8 22 -2.5 41.5z" />
<glyph unicode="&#xee;" d="M167 102q0 32 3.5 52t11 31.5t19.5 15.5t29 4h273v514h-193q-17 0 -29 4t-19.5 15t-11 31t-3.5 52t3.5 52t11 31.5t19.5 15.5t29 4h380q34 0 48.5 -14.5t14.5 -48.5v-656h281q17 0 29 -4t19.5 -15.5t11 -31.5t3.5 -52t-3.5 -52t-11 -31t-19.5 -15t-29 -4h-804 q-17 0 -29 4t-19.5 15t-11 31t-3.5 52zM254.5 1091.5q0.5 19.5 17.5 35.5l287 261q11 10 25 14t30 4t30 -4t25 -14l287 -261q17 -16 17.5 -35.5t-13.5 -38.5q-14 -18 -31 -25.5t-36 1.5l-279 134l-279 -134q-19 -9 -36 -1.5t-31 25.5q-14 19 -13.5 38.5z" />
<glyph unicode="&#xef;" d="M167 102q0 32 3.5 52t11 31.5t19.5 15.5t29 4h273v514h-193q-17 0 -29 4t-19.5 15t-11 31t-3.5 52t3.5 52t11 31.5t19.5 15.5t29 4h380q34 0 48.5 -14.5t14.5 -48.5v-656h281q17 0 29 -4t19.5 -15.5t11 -31.5t3.5 -52t-3.5 -52t-11 -31t-19.5 -15t-29 -4h-804 q-17 0 -29 4t-19.5 15t-11 31t-3.5 52zM234 1195q0 31 12 58.5t32 47.5t47.5 32t58.5 12t58.5 -12t47.5 -32t32 -47.5t12 -58.5t-12 -58.5t-32 -47.5t-47.5 -32t-58.5 -12t-58.5 12t-47.5 32t-32 47.5t-12 58.5zM694 1195q0 31 12 58.5t32 47.5t47.5 32t58.5 12t58.5 -12 t47.5 -32t32 -47.5t12 -58.5t-12 -58.5t-32 -47.5t-47.5 -32t-58.5 -12t-58.5 12t-47.5 32t-32 47.5t-12 58.5z" />
<glyph unicode="&#xf0;" d="M122 422q0 97 33 179t93.5 140.5t145.5 91.5t190 33q54 0 101 -12.5t89 -37.5q-33 49 -71.5 90.5t-82.5 77.5l-153 -81q-15 -8 -27.5 -10t-24 3.5t-23 19.5t-24.5 39t-18.5 42.5t-3.5 30.5t10.5 22t23.5 17l65 34q-17 10 -33.5 19t-33.5 17q-32 16 -31.5 48t38.5 92 q18 28 34 44.5t31 23t29.5 5t30.5 -9.5q97 -50 180 -108l151 80q30 16 51.5 6t47.5 -59q13 -25 18.5 -42.5t3.5 -30t-10.5 -21.5t-23.5 -17l-85 -45q131 -134 197 -294.5t66 -346.5q0 -113 -35 -202.5t-99 -152t-155 -96t-203 -33.5t-203 33t-155 91.5t-99 140t-35 179.5z M390 422q0 -51 16 -91.5t45.5 -68t70.5 -42.5t92 -15t92 15t70.5 42.5t45.5 68t16 91.5t-16 91.5t-45.5 68t-70.5 42.5t-92 15t-92 -15t-70.5 -42.5t-45.5 -68t-16 -91.5z" />
<glyph unicode="&#xf1;" d="M57 821q0 32 3.5 52t11 31.5t19.5 15.5t29 4h244q34 0 48.5 -14.5t14.5 -48.5v-145q70 122 153 176t177 54q69 0 125 -23t95 -65t60.5 -102.5t21.5 -135.5v-415h77q17 0 29 -4t19.5 -15.5t11 -31.5t3.5 -52t-3.5 -52t-11 -31t-19.5 -15t-29 -4h-374q-17 0 -29 4t-19.5 15 t-11 31t-3.5 52t3.5 52t11 31.5t19.5 15.5t29 4h47v356q0 74 -25.5 116t-91.5 42q-45 0 -85.5 -28.5t-71.5 -76.5t-49.5 -112t-18.5 -134v-163h47q17 0 29 -4t19.5 -15.5t11 -31.5t3.5 -52t-3.5 -52t-11 -31t-19.5 -15t-29 -4h-374q-17 0 -29 4t-19.5 15t-11 31t-3.5 52 t3.5 52t11 31.5t19.5 15.5t29 4h77v514h-97q-17 0 -29 4t-19.5 15t-11 31t-3.5 52zM246.5 1190q-1.5 25 17.5 41q60 52 110 72.5t95 20.5q41 0 79 -11.5t74 -25.5t72 -25.5t73 -11.5q27 0 58.5 7t63.5 24q23 13 42.5 1.5t35.5 -38.5q14 -27 15 -52t-19 -41 q-59 -51 -108.5 -72t-94.5 -21q-42 0 -80 11.5t-74 25.5t-71.5 25.5t-72.5 11.5q-29 0 -60.5 -7t-63.5 -24q-22 -12 -41.5 -1t-34.5 39q-14 26 -15.5 51z" />
<glyph unicode="&#xf2;" d="M107 462q0 105 36 193.5t102 153t159.5 101t209.5 36.5t209.5 -36.5t159.5 -101t102 -153t36 -193.5t-36 -194t-102 -153.5t-159.5 -100.5t-209.5 -36t-209.5 36t-159.5 100.5t-102 153.5t-36 194zM279.5 1198.5q-3.5 33.5 26.5 102.5q30 68 61 87.5t59 3.5l408 -247 q20 -12 25.5 -31.5t-2.5 -41.5q-8 -23 -26 -34.5t-42 -4.5l-480 125q-26 7 -29.5 40.5zM375 462q0 -59 17 -106t48 -81t75.5 -52t98.5 -18t98.5 18t75.5 52t48 81t17 106q0 58 -17 105.5t-48 81.5t-75.5 52t-98.5 18t-98.5 -18t-75.5 -52t-48 -81.5t-17 -105.5z" />
<glyph unicode="&#xf3;" d="M107 462q0 105 36 193.5t102 153t159.5 101t209.5 36.5t209.5 -36.5t159.5 -101t102 -153t36 -193.5t-36 -194t-102 -153.5t-159.5 -100.5t-209.5 -36t-209.5 36t-159.5 100.5t-102 153.5t-36 194zM368.5 1113.5q5.5 19.5 25.5 31.5l408 247q28 16 59 -3.5t61 -87.5 q30 -69 26.5 -102.5t-29.5 -40.5l-480 -125q-24 -7 -42 4.5t-26 34.5q-8 22 -2.5 41.5zM375 462q0 -59 17 -106t48 -81t75.5 -52t98.5 -18t98.5 18t75.5 52t48 81t17 106q0 58 -17 105.5t-48 81.5t-75.5 52t-98.5 18t-98.5 -18t-75.5 -52t-48 -81.5t-17 -105.5z" />
<glyph unicode="&#xf4;" d="M107 462q0 105 36 193.5t102 153t159.5 101t209.5 36.5t209.5 -36.5t159.5 -101t102 -153t36 -193.5t-36 -194t-102 -153.5t-159.5 -100.5t-209.5 -36t-209.5 36t-159.5 100.5t-102 153.5t-36 194zM254.5 1091.5q0.5 19.5 17.5 35.5l287 261q11 10 25 14t30 4t30 -4 t25 -14l287 -261q17 -16 17.5 -35.5t-13.5 -38.5q-14 -18 -31 -25.5t-36 1.5l-279 134l-279 -134q-19 -9 -36 -1.5t-31 25.5q-14 19 -13.5 38.5zM375 462q0 -59 17 -106t48 -81t75.5 -52t98.5 -18t98.5 18t75.5 52t48 81t17 106q0 58 -17 105.5t-48 81.5t-75.5 52t-98.5 18 t-98.5 -18t-75.5 -52t-48 -81.5t-17 -105.5z" />
<glyph unicode="&#xf5;" d="M107 462q0 105 36 193.5t102 153t159.5 101t209.5 36.5t209.5 -36.5t159.5 -101t102 -153t36 -193.5t-36 -194t-102 -153.5t-159.5 -100.5t-209.5 -36t-209.5 36t-159.5 100.5t-102 153.5t-36 194zM246.5 1190q-1.5 25 17.5 41q60 52 110 72.5t95 20.5q41 0 79 -11.5 t74 -25.5t72 -25.5t73 -11.5q27 0 58.5 7t63.5 24q23 13 42.5 1.5t35.5 -38.5q14 -27 15 -52t-19 -41q-59 -51 -108.5 -72t-94.5 -21q-42 0 -80 11.5t-74 25.5t-71.5 25.5t-72.5 11.5q-29 0 -60.5 -7t-63.5 -24q-22 -12 -41.5 -1t-34.5 39q-14 26 -15.5 51zM375 462 q0 -59 17 -106t48 -81t75.5 -52t98.5 -18t98.5 18t75.5 52t48 81t17 106q0 58 -17 105.5t-48 81.5t-75.5 52t-98.5 18t-98.5 -18t-75.5 -52t-48 -81.5t-17 -105.5z" />
<glyph unicode="&#xf6;" d="M107 462q0 105 36 193.5t102 153t159.5 101t209.5 36.5t209.5 -36.5t159.5 -101t102 -153t36 -193.5t-36 -194t-102 -153.5t-159.5 -100.5t-209.5 -36t-209.5 36t-159.5 100.5t-102 153.5t-36 194zM234 1195q0 31 12 58.5t32 47.5t47.5 32t58.5 12t58.5 -12t47.5 -32 t32 -47.5t12 -58.5t-12 -58.5t-32 -47.5t-47.5 -32t-58.5 -12t-58.5 12t-47.5 32t-32 47.5t-12 58.5zM375 462q0 -59 17 -106t48 -81t75.5 -52t98.5 -18t98.5 18t75.5 52t48 81t17 106q0 58 -17 105.5t-48 81.5t-75.5 52t-98.5 18t-98.5 -18t-75.5 -52t-48 -81.5t-17 -105.5 zM694 1195q0 31 12 58.5t32 47.5t47.5 32t58.5 12t58.5 -12t47.5 -32t32 -47.5t12 -58.5t-12 -58.5t-32 -47.5t-47.5 -32t-58.5 -12t-58.5 12t-47.5 32t-32 47.5t-12 58.5z" />
<glyph unicode="&#xf7;" d="M170 582q0 36 3.5 58t11 34t19.5 16.5t29 4.5h762q17 0 29 -4.5t19.5 -16.5t11 -34t3.5 -58t-3.5 -58t-11 -34t-19.5 -16t-29 -4h-762q-17 0 -29 4t-19.5 16t-11 34t-3.5 58zM469 224q0 30 11.5 56.5t31 46t46 31t56.5 11.5t56.5 -11.5t46 -31t31 -46t11.5 -56.5 t-11.5 -56.5t-31 -46t-46 -31t-56.5 -11.5t-56.5 11.5t-46 31t-31 46t-11.5 56.5zM469 941q0 30 11.5 56.5t31 46t46 31t56.5 11.5t56.5 -11.5t46 -31t31 -46t11.5 -56.5t-11.5 -56.5t-31 -46t-46 -31t-56.5 -11.5t-56.5 11.5t-46 31t-31 46t-11.5 56.5z" />
<glyph unicode="&#xf8;" d="M107 462q0 105 36 193.5t102 153t159.5 101t209.5 36.5q79 0 148 -17.5t126 -49.5l42 44q12 12 23 18t24 4.5t28.5 -12t35.5 -29.5q20 -20 30.5 -35t13 -27.5t-3 -24t-17.5 -23.5l-36 -37q45 -60 69 -134.5t24 -160.5q0 -105 -36 -194t-102 -153.5t-159.5 -100.5 t-209.5 -36q-80 0 -148.5 17t-125.5 49l-42 -43q-23 -25 -47 -22.5t-64 41.5q-20 19 -30.5 34.5t-13 28t3 24t17.5 23.5l35 36q-45 60 -68.5 135t-23.5 161zM375 462q0 -52 14 -99l325 337q-46 19 -100 19t-98.5 -18t-75.5 -52t-48 -81.5t-17 -105.5zM513 224 q44 -19 101 -19q54 0 98.5 18t75.5 52t48 81t17 106q0 54 -15 98z" />
<glyph unicode="&#xf9;" d="M50 822q0 32 3.5 52t11 31t19.5 15t29 4h264q34 0 48.5 -14.5t14.5 -48.5v-498q0 -74 25.5 -116t91.5 -42q45 0 85.5 28.5t71.5 76.5t49.5 111.5t18.5 134.5v163h-107q-17 0 -29 4t-19.5 15.5t-11 31.5t-3.5 52t3.5 52t11 31t19.5 15t29 4h294q34 0 48.5 -14.5 t14.5 -48.5v-656h77q17 0 29 -4t19.5 -15t11 -31t3.5 -52t-3.5 -52t-11 -31.5t-19.5 -15.5t-29 -4h-224q-34 0 -48.5 14.5t-14.5 48.5v145q-70 -122 -153 -176t-177 -54q-69 0 -125 23t-95 65t-60.5 102.5t-21.5 135.5v415h-77q-17 0 -29 4t-19.5 15.5t-11 31.5t-3.5 52z M269.5 1198.5q-3.5 33.5 26.5 102.5q30 68 61 87.5t59 3.5l408 -247q20 -12 25.5 -31.5t-2.5 -41.5q-8 -23 -26 -34.5t-42 -4.5l-480 125q-26 7 -29.5 40.5z" />
<glyph unicode="&#xfa;" d="M50 822q0 32 3.5 52t11 31t19.5 15t29 4h264q34 0 48.5 -14.5t14.5 -48.5v-498q0 -74 25.5 -116t91.5 -42q45 0 85.5 28.5t71.5 76.5t49.5 111.5t18.5 134.5v163h-107q-17 0 -29 4t-19.5 15.5t-11 31.5t-3.5 52t3.5 52t11 31t19.5 15t29 4h294q34 0 48.5 -14.5 t14.5 -48.5v-656h77q17 0 29 -4t19.5 -15t11 -31t3.5 -52t-3.5 -52t-11 -31.5t-19.5 -15.5t-29 -4h-224q-34 0 -48.5 14.5t-14.5 48.5v145q-70 -122 -153 -176t-177 -54q-69 0 -125 23t-95 65t-60.5 102.5t-21.5 135.5v415h-77q-17 0 -29 4t-19.5 15.5t-11 31.5t-3.5 52z M388.5 1113.5q5.5 19.5 25.5 31.5l408 247q28 16 59 -3.5t61 -87.5q30 -69 26.5 -102.5t-29.5 -40.5l-480 -125q-24 -7 -42 4.5t-26 34.5q-8 22 -2.5 41.5z" />
<glyph unicode="&#xfb;" d="M50 822q0 32 3.5 52t11 31t19.5 15t29 4h264q34 0 48.5 -14.5t14.5 -48.5v-498q0 -74 25.5 -116t91.5 -42q45 0 85.5 28.5t71.5 76.5t49.5 111.5t18.5 134.5v163h-107q-17 0 -29 4t-19.5 15.5t-11 31.5t-3.5 52t3.5 52t11 31t19.5 15t29 4h294q34 0 48.5 -14.5 t14.5 -48.5v-656h77q17 0 29 -4t19.5 -15t11 -31t3.5 -52t-3.5 -52t-11 -31.5t-19.5 -15.5t-29 -4h-224q-34 0 -48.5 14.5t-14.5 48.5v145q-70 -122 -153 -176t-177 -54q-69 0 -125 23t-95 65t-60.5 102.5t-21.5 135.5v415h-77q-17 0 -29 4t-19.5 15.5t-11 31.5t-3.5 52z M244.5 1091.5q0.5 19.5 17.5 35.5l287 261q11 10 25 14t30 4t30 -4t25 -14l287 -261q17 -16 17.5 -35.5t-13.5 -38.5q-14 -18 -31 -25.5t-36 1.5l-279 134l-279 -134q-19 -9 -36 -1.5t-31 25.5q-14 19 -13.5 38.5z" />
<glyph unicode="&#xfc;" d="M50 822q0 32 3.5 52t11 31t19.5 15t29 4h264q34 0 48.5 -14.5t14.5 -48.5v-498q0 -74 25.5 -116t91.5 -42q45 0 85.5 28.5t71.5 76.5t49.5 111.5t18.5 134.5v163h-107q-17 0 -29 4t-19.5 15.5t-11 31.5t-3.5 52t3.5 52t11 31t19.5 15t29 4h294q34 0 48.5 -14.5 t14.5 -48.5v-656h77q17 0 29 -4t19.5 -15t11 -31t3.5 -52t-3.5 -52t-11 -31.5t-19.5 -15.5t-29 -4h-224q-34 0 -48.5 14.5t-14.5 48.5v145q-70 -122 -153 -176t-177 -54q-69 0 -125 23t-95 65t-60.5 102.5t-21.5 135.5v415h-77q-17 0 -29 4t-19.5 15.5t-11 31.5t-3.5 52z M214 1195q0 31 12 58.5t32 47.5t47.5 32t58.5 12t58.5 -12t47.5 -32t32 -47.5t12 -58.5t-12 -58.5t-32 -47.5t-47.5 -32t-58.5 -12t-58.5 12t-47.5 32t-32 47.5t-12 58.5zM674 1195q0 31 12 58.5t32 47.5t47.5 32t58.5 12t58.5 -12t47.5 -32t32 -47.5t12 -58.5t-12 -58.5 t-32 -47.5t-47.5 -32t-58.5 -12t-58.5 12t-47.5 32t-32 47.5t-12 58.5z" />
<glyph unicode="&#xfd;" d="M40 821q0 32 3.5 52t11 31.5t19.5 15.5t29 4h404q17 0 29 -4t19.5 -15.5t11 -31.5t3.5 -52t-3.5 -52t-11 -31t-19.5 -15t-29 -4h-60l174 -380l174 380h-54q-17 0 -29 4t-19.5 15t-11 31t-3.5 52t3.5 52t11 31.5t19.5 15.5t29 4h384q17 0 29 -4t19.5 -15.5t11 -31.5 t3.5 -52t-3.5 -52t-11 -31t-19.5 -15t-29 -4h-64l-383 -776q-52 -105 -99.5 -172.5t-103 -107.5t-124 -57t-162.5 -20q-29 -1 -48.5 20t-23.5 83q-2 34 0.5 57.5t9.5 37.5t17 20.5t24 7.5q59 3 100.5 17.5t76 46.5t66.5 84t73 130l-306 629h-75q-17 0 -29 4t-19.5 15t-11 31 t-3.5 52zM393.5 1113.5q5.5 19.5 25.5 31.5l408 247q28 16 59 -3.5t61 -87.5q30 -69 26.5 -102.5t-29.5 -40.5l-480 -125q-24 -7 -42 4.5t-26 34.5q-8 22 -2.5 41.5z" />
<glyph unicode="&#xfe;" d="M37 -291q0 32 3.5 52t11 31.5t19.5 15.5t29 4h87v1295h-87q-17 0 -29 4t-19.5 15t-11 31t-3.5 52t3.5 52t11 31.5t19.5 15.5t29 4h274q34 0 48.5 -14.5t14.5 -48.5v-419q51 55 117 85.5t146 30.5q99 0 178.5 -35.5t136 -98t86.5 -148.5t30 -187t-30 -187t-86.5 -148.5 t-136 -98t-178.5 -35.5q-80 0 -146 30t-117 85v-311h247q17 0 29 -4t19.5 -15.5t11 -31.5t3.5 -52t-3.5 -52t-11 -31t-19.5 -15t-29 -4h-584q-17 0 -29 4t-19.5 15t-11 31t-3.5 52zM430 477q0 -61 18.5 -106.5t50 -75.5t73 -45t88.5 -15q92 0 147.5 62t55.5 180t-55.5 180 t-147.5 62q-47 0 -88.5 -15t-73 -45t-50 -75.5t-18.5 -106.5z" />
<glyph unicode="&#xff;" d="M40 821q0 32 3.5 52t11 31.5t19.5 15.5t29 4h404q17 0 29 -4t19.5 -15.5t11 -31.5t3.5 -52t-3.5 -52t-11 -31t-19.5 -15t-29 -4h-60l174 -380l174 380h-54q-17 0 -29 4t-19.5 15t-11 31t-3.5 52t3.5 52t11 31.5t19.5 15.5t29 4h384q17 0 29 -4t19.5 -15.5t11 -31.5 t3.5 -52t-3.5 -52t-11 -31t-19.5 -15t-29 -4h-64l-383 -776q-52 -105 -99.5 -172.5t-103 -107.5t-124 -57t-162.5 -20q-29 -1 -48.5 20t-23.5 83q-2 34 0.5 57.5t9.5 37.5t17 20.5t24 7.5q59 3 100.5 17.5t76 46.5t66.5 84t73 130l-306 629h-75q-17 0 -29 4t-19.5 15t-11 31 t-3.5 52zM234 1195q0 31 12 58.5t32 47.5t47.5 32t58.5 12t58.5 -12t47.5 -32t32 -47.5t12 -58.5t-12 -58.5t-32 -47.5t-47.5 -32t-58.5 -12t-58.5 12t-47.5 32t-32 47.5t-12 58.5zM694 1195q0 31 12 58.5t32 47.5t47.5 32t58.5 12t58.5 -12t47.5 -32t32 -47.5t12 -58.5 t-12 -58.5t-32 -47.5t-47.5 -32t-58.5 -12t-58.5 12t-47.5 32t-32 47.5t-12 58.5z" />
<glyph unicode="&#x152;" d="M63 594q0 142 36.5 252.5t105 186.5t167 115t222.5 39h491q35 0 50 -15t15 -50v-272q0 -34 -26 -48.5t-86 -14.5q-30 0 -49 3.5t-30 11t-15 19.5t-4 29v132h-170v-253h114q17 0 29 -5t19.5 -17t11 -33t3.5 -53t-3.5 -52.5t-11 -32.5t-19.5 -17t-29 -5h-114v-309h180v182 q0 34 26 48.5t90 14.5q32 0 52 -3.5t31.5 -11t16 -19.5t4.5 -29v-322q0 -35 -15 -50t-50 -15h-511q-124 0 -222.5 39.5t-167 115t-105 186t-36.5 253.5zM303 594q0 -92 18 -161.5t49.5 -116.5t75 -72t94.5 -29v757q-51 -4 -94.5 -29t-75 -72t-49.5 -116t-18 -161z" />
<glyph unicode="&#x153;" d="M27 462q0 105 19.5 193.5t62 153t110.5 101t165 36.5q81 0 139 -29t97 -81q42 52 100.5 81t137.5 29q102 0 167 -38.5t102.5 -107t51.5 -163t14 -205.5q0 -34 -14.5 -48t-48.5 -14h-406q11 -81 44 -123t90 -42q56 0 106 12t112 38q19 8 34 6t27 -12.5t21.5 -28.5 t17.5 -41q19 -54 12 -84t-43 -46q-68 -29 -144.5 -50t-157.5 -21q-76 0 -132.5 27.5t-94.5 78.5q-39 -51 -96.5 -78.5t-135.5 -27.5q-97 0 -165 36t-110.5 100.5t-62 153.5t-19.5 194zM265 462q0 -133 27 -195t92 -62t92 62t27 195t-27 195t-92 62t-92 -62t-27 -195z M724 565h244q-5 72 -32 113t-78 41q-61 0 -92 -38t-42 -116z" />
<glyph unicode="&#x178;" d="M40 1084q0 32 3.5 52t11 31.5t19.5 15.5t29 4h394q17 0 29 -4t19.5 -15.5t11 -31.5t3.5 -52t-3.5 -52t-11 -31t-19.5 -15t-29 -4h-67l186 -292l188 292h-53q-17 0 -29 4t-19.5 15t-11 31t-3.5 52t3.5 52t11 31.5t19.5 15.5t29 4h374q17 0 29 -4t19.5 -15.5t11 -31.5 t3.5 -52t-3.5 -52t-11 -31t-19.5 -15t-29 -4h-44l-342 -523v-254h196q17 0 29 -4t19.5 -15.5t11 -31.5t3.5 -52t-3.5 -52t-11 -31t-19.5 -15t-29 -4h-642q-17 0 -29 4t-19.5 15t-11 31t-3.5 52t3.5 52t11 31.5t19.5 15.5t29 4h196v255l-340 522h-46q-17 0 -29 4t-19.5 15 t-11 31t-3.5 52zM234 1465q0 31 12 58.5t32 47.5t47.5 32t58.5 12t58.5 -12t47.5 -32t32 -47.5t12 -58.5t-12 -58.5t-32 -47.5t-47.5 -32t-58.5 -12t-58.5 12t-47.5 32t-32 47.5t-12 58.5zM694 1465q0 31 12 58.5t32 47.5t47.5 32t58.5 12t58.5 -12t47.5 -32t32 -47.5 t12 -58.5t-12 -58.5t-32 -47.5t-47.5 -32t-58.5 -12t-58.5 12t-47.5 32t-32 47.5t-12 58.5z" />
<glyph unicode="&#x2c6;" d="M254.5 1091.5q0.5 19.5 17.5 35.5l287 261q11 10 25 14t30 4t30 -4t25 -14l287 -261q17 -16 17.5 -35.5t-13.5 -38.5q-14 -18 -31 -25.5t-36 1.5l-279 134l-279 -134q-19 -9 -36 -1.5t-31 25.5q-14 19 -13.5 38.5z" />
<glyph unicode="&#x2dc;" d="M246.5 1190q-1.5 25 17.5 41q60 52 110 72.5t95 20.5q41 0 79 -11.5t74 -25.5t72 -25.5t73 -11.5q27 0 58.5 7t63.5 24q23 13 42.5 1.5t35.5 -38.5q14 -27 15 -52t-19 -41q-59 -51 -108.5 -72t-94.5 -21q-42 0 -80 11.5t-74 25.5t-71.5 25.5t-72.5 11.5q-29 0 -60.5 -7 t-63.5 -24q-22 -12 -41.5 -1t-34.5 39q-14 26 -15.5 51z" />
<glyph unicode="&#x2000;" horiz-adv-x="898" />
<glyph unicode="&#x2001;" horiz-adv-x="1797" />
<glyph unicode="&#x2002;" horiz-adv-x="898" />
<glyph unicode="&#x2003;" horiz-adv-x="1797" />
<glyph unicode="&#x2004;" horiz-adv-x="599" />
<glyph unicode="&#x2005;" horiz-adv-x="449" />
<glyph unicode="&#x2006;" horiz-adv-x="299" />
<glyph unicode="&#x2007;" horiz-adv-x="299" />
<glyph unicode="&#x2008;" horiz-adv-x="224" />
<glyph unicode="&#x2009;" horiz-adv-x="359" />
<glyph unicode="&#x200a;" horiz-adv-x="99" />
<glyph unicode="&#x2010;" d="M170 582q0 36 3.5 58t11 34t19.5 16.5t29 4.5h762q17 0 29 -4.5t19.5 -16.5t11 -34t3.5 -58t-3.5 -58t-11 -34t-19.5 -16t-29 -4h-762q-17 0 -29 4t-19.5 16t-11 34t-3.5 58z" />
<glyph unicode="&#x2011;" d="M170 582q0 36 3.5 58t11 34t19.5 16.5t29 4.5h762q17 0 29 -4.5t19.5 -16.5t11 -34t3.5 -58t-3.5 -58t-11 -34t-19.5 -16t-29 -4h-762q-17 0 -29 4t-19.5 16t-11 34t-3.5 58z" />
<glyph unicode="&#x2012;" d="M170 582q0 36 3.5 58t11 34t19.5 16.5t29 4.5h762q17 0 29 -4.5t19.5 -16.5t11 -34t3.5 -58t-3.5 -58t-11 -34t-19.5 -16t-29 -4h-762q-17 0 -29 4t-19.5 16t-11 34t-3.5 58z" />
<glyph unicode="&#x2013;" d="M170 582q0 36 3.5 58t11 34t19.5 16.5t29 4.5h762q17 0 29 -4.5t19.5 -16.5t11 -34t3.5 -58t-3.5 -58t-11 -34t-19.5 -16t-29 -4h-762q-17 0 -29 4t-19.5 16t-11 34t-3.5 58z" />
<glyph unicode="&#x2014;" d="M-30 582q0 36 3.5 58t11 34t19.5 16.5t29 4.5h1162q17 0 29 -4.5t19.5 -16.5t11 -34t3.5 -58t-3.5 -58t-11 -34t-19.5 -16t-29 -4h-1162q-17 0 -29 4t-19.5 16t-11 34t-3.5 58z" />
<glyph unicode="&#x2018;" d="M371 667.5q-8 18.5 5 44.5l237 474q17 33 40.5 47t65.5 14q50 0 69 -19.5t11 -66.5l-84 -472q-8 -40 -52 -40h-259q-25 0 -33 18.5z" />
<glyph unicode="&#x2019;" d="M414 697l84 472q8 40 52 40h259q25 0 33 -18.5t-5 -44.5l-237 -474q-17 -33 -40.5 -47t-65.5 -14q-50 0 -69 19.5t-11 66.5z" />
<glyph unicode="&#x201a;" d="M414 -208l84 472q8 40 52 40h259q25 0 33 -18.5t-5 -44.5l-237 -474q-17 -33 -40.5 -47t-65.5 -14q-50 0 -69 19.5t-11 66.5z" />
<glyph unicode="&#x201c;" d="M131 667.5q-8 18.5 5 44.5l237 474q17 33 40.5 47t65.5 14q50 0 69 -19.5t11 -66.5l-84 -472q-8 -40 -52 -40h-259q-25 0 -33 18.5zM611 667.5q-8 18.5 5 44.5l237 474q17 33 40.5 47t65.5 14q50 0 69 -19.5t11 -66.5l-84 -472q-8 -40 -52 -40h-259q-25 0 -33 18.5z" />
<glyph unicode="&#x201d;" d="M174 697l84 472q8 40 52 40h259q25 0 33 -18.5t-5 -44.5l-237 -474q-17 -33 -40.5 -47t-65.5 -14q-50 0 -69 19.5t-11 66.5zM654 697l84 472q8 40 52 40h259q25 0 33 -18.5t-5 -44.5l-237 -474q-17 -33 -40.5 -47t-65.5 -14q-50 0 -69 19.5t-11 66.5z" />
<glyph unicode="&#x201e;" d="M174 -208l84 472q8 40 52 40h259q25 0 33 -18.5t-5 -44.5l-237 -474q-17 -33 -40.5 -47t-65.5 -14q-50 0 -69 19.5t-11 66.5zM654 -208l84 472q8 40 52 40h259q25 0 33 -18.5t-5 -44.5l-237 -474q-17 -33 -40.5 -47t-65.5 -14q-50 0 -69 19.5t-11 66.5z" />
<glyph unicode="&#x2022;" d="M320 579q0 61 23 114.5t63 93.5t93.5 63t114.5 23t114.5 -23t93.5 -63t63 -93.5t23 -114.5t-23 -114.5t-63 -93.5t-93.5 -63t-114.5 -23t-114.5 23t-93.5 63t-63 93.5t-23 114.5z" />
<glyph unicode="&#x2026;" d="M71 120q0 29 11 55t30.5 45.5t45.5 30.5t55 11t55 -11t45.5 -30.5t30.5 -45.5t11 -55t-11 -55t-30.5 -45.5t-45.5 -30.5t-55 -11t-55 11t-45.5 30.5t-30.5 45.5t-11 55zM472 120q0 29 11 55t30.5 45.5t45.5 30.5t55 11t55 -11t45.5 -30.5t30.5 -45.5t11 -55t-11 -55 t-30.5 -45.5t-45.5 -30.5t-55 -11t-55 11t-45.5 30.5t-30.5 45.5t-11 55zM873 120q0 29 11 55t30.5 45.5t45.5 30.5t55 11t55 -11t45.5 -30.5t30.5 -45.5t11 -55t-11 -55t-30.5 -45.5t-45.5 -30.5t-55 -11t-55 11t-45.5 30.5t-30.5 45.5t-11 55z" />
<glyph unicode="&#x202f;" horiz-adv-x="359" />
<glyph unicode="&#x2039;" d="M393 525q-16 25 0 51l209 344q8 13 22.5 19t32.5 6.5t38.5 -4t39.5 -13.5q20 -9 37.5 -21.5t29 -27t14.5 -29.5t-6 -30l-164 -269l164 -270q9 -15 6 -30t-14.5 -29.5t-29 -27t-37.5 -21.5q-19 -9 -39.5 -13.5t-38.5 -4t-32.5 6.5t-22.5 19z" />
<glyph unicode="&#x203a;" d="M412 251q-3 15 6 30l164 270l-164 269q-9 15 -6 30t14 29.5t29 27t38 21.5q19 9 39.5 13.5t38.5 4t32.5 -6.5t22.5 -19l209 -344q16 -26 0 -51l-209 -344q-8 -13 -22.5 -19t-32.5 -6.5t-38.5 4t-39.5 13.5q-20 9 -38 21.5t-29 27t-14 29.5z" />
<glyph unicode="&#x205f;" horiz-adv-x="449" />
<glyph unicode="&#x20ac;" d="M50 429q0 56 14.5 74.5t48.5 18.5h67q-6 70 0 143h-67q-17 0 -29 4t-19.5 14t-11 28t-3.5 46q0 56 14.5 74.5t48.5 18.5h92q24 85 64.5 151.5t95 112.5t122.5 70.5t147 24.5q88 0 150 -33.5t100 -91.5v62q0 34 29 48.5t93 14.5q32 0 53 -3.5t33 -11t17 -19.5t5 -29v-384 q0 -34 -30 -48.5t-102 -14.5q-36 0 -58.5 3.5t-36 11t-18.5 19.5t-5 29q0 48 -13.5 88.5t-39 70t-62.5 45.5t-85 16q-72 0 -117.5 -33.5t-70.5 -98.5h189q34 0 48.5 -18.5t14.5 -74.5q0 -28 -3.5 -46t-11 -28t-19.5 -14t-29 -4h-218q-3 -35 -3 -70.5t4 -72.5h217 q34 0 48.5 -18.5t14.5 -74.5q0 -28 -3.5 -46t-11 -28t-19.5 -14t-29 -4h-185q27 -65 74.5 -98.5t119.5 -33.5q85 0 164.5 25.5t166.5 69.5q30 15 58 0t50 -75q22 -61 11 -93t-43 -48q-105 -52 -211 -79t-206 -27q-176 0 -292.5 94t-165.5 265h-93q-17 0 -29 4t-19.5 14 t-11 28t-3.5 46z" />
<glyph unicode="&#x2122;" d="M50 1234q0 24 3.5 39.5t11 24t19.5 11.5t29 3h402q17 0 29 -3t19.5 -11.5t11 -24t3.5 -39.5t-3.5 -39.5t-11 -23.5t-19.5 -11t-29 -3h-121v-344q0 -17 -3 -29.5t-12 -20.5t-24.5 -11.5t-40.5 -3.5t-40.5 3.5t-24.5 11.5t-12 20.5t-3 29.5v344h-121q-17 0 -29 3t-19.5 11 t-11 23.5t-3.5 39.5zM629 813l30 444q2 35 20.5 50t64.5 15q34 0 50 -7t24 -22l140 -256l140 256q8 15 24 22t50 7q46 0 64.5 -15t20.5 -50l30 -444q2 -35 -12.5 -50t-60.5 -15t-63.5 15t-19.5 50l-10 217l-91 -165q-13 -23 -32.5 -35t-39.5 -12t-39.5 12t-32.5 35l-92 165 l-9 -217q-2 -35 -19.5 -50t-63.5 -15t-60.5 15t-12.5 50z" />
<glyph unicode="&#x25fc;" horiz-adv-x="925" d="M0 0v925h925v-925h-925z" />
<glyph unicode="&#xfb01;" d="M37 102q0 32 3.5 52t11 31.5t19.5 15.5t29 4h113v514h-113q-34 0 -48.5 21t-14.5 81t14.5 81.5t48.5 21.5h113v33q0 90 24.5 157.5t70.5 112.5t112.5 67.5t149.5 22.5q71 0 146.5 -13t157.5 -44q24 -9 37 -25t13 -45q0 -23 -5.5 -48.5t-16 -46.5t-25 -35t-32.5 -14 q-14 0 -31 5q-64 20 -117.5 29.5t-104.5 9.5q-62 0 -95.5 -33.5t-33.5 -112.5v-20h527q34 0 48.5 -14.5t14.5 -48.5v-656h101q17 0 29 -4t19.5 -15.5t11 -31.5t3.5 -52t-3.5 -52t-11 -31t-19.5 -15t-29 -4h-408q-17 0 -29 4t-19.5 15t-11 31t-3.5 52t3.5 52t11 31.5 t19.5 15.5t29 4h57v514h-340v-514h57q17 0 29 -4t19.5 -15.5t11 -31.5t3.5 -52t-3.5 -52t-11 -31t-19.5 -15t-29 -4h-420q-17 0 -29 4t-19.5 15t-11 31t-3.5 52z" />
<glyph unicode="&#xfb02;" d="M37 102q0 32 3.5 52t11 31.5t19.5 15.5t29 4h113v444h-113q-17 0 -29 5t-19.5 17t-11 32.5t-3.5 52.5t3.5 53t11 33t19.5 17t29 5h113v103q0 82 24.5 146t70.5 108.5t112.5 67.5t149.5 23h420q34 0 48.5 -14.5t14.5 -48.5v-1044h101q17 0 29 -4t19.5 -15.5t11 -31.5 t3.5 -52t-3.5 -52t-11 -31t-19.5 -15t-29 -4h-408q-17 0 -29 4t-19.5 15t-11 31t-3.5 52t3.5 52t11 31.5t19.5 15.5t29 4h57v892h-211q-62 0 -95.5 -32t-33.5 -104v-97h161q17 0 29 -5t19.5 -17t11 -33t3.5 -53t-3.5 -52.5t-11 -32.5t-19.5 -17t-29 -5h-161v-444h57 q17 0 29 -4t19.5 -15.5t11 -31.5t3.5 -52t-3.5 -52t-11 -31t-19.5 -15t-29 -4h-420q-17 0 -29 4t-19.5 15t-11 31t-3.5 52z" />
</font>
</defs>
</svg>
